<svg width="450" height="500" viewBox="0 0 450 500" fill="none" xmlns="http://www.w3.org/2000/svg">
<g clip-path="url(#clip0_641_1037)">
<path d="M449.78 30.9734C450.508 129.962 437.327 213.802 409.448 287.276C376.848 373.199 323.35 443.815 250.433 497.149L248.657 498.442C248.209 498.765 247.655 498.988 247.079 499.031L244.878 499.21C242.017 499.476 238.018 499.656 233.366 499.735C234.694 499.433 235.673 498.298 235.673 496.962V489.578C238.451 489.477 240.947 489.377 243.004 489.212C243.603 489.168 244.157 488.946 244.627 488.608C396.585 377.021 440.105 207.272 439.103 32.8769C439.103 31.7635 438.443 30.7364 437.373 30.2695C406.503 17.1031 322.31 10.5522 235.673 10.3295V3.04598C235.673 1.55192 234.436 0.316447 232.873 0.194336C313.948 0.294898 409.615 6.01973 443.823 21.9731L448.05 23.9556C449.074 24.4441 449.734 25.4138 449.734 26.5056L449.78 30.9734Z" fill="#97BF0D"/>
<path d="M439.103 32.8696C440.105 207.265 396.585 377.013 244.628 488.601C244.157 488.946 243.603 489.168 243.004 489.204C240.955 489.37 238.451 489.47 235.673 489.571V476.447C235.673 478.107 237.123 479.4 238.876 479.321H238.921C239.559 479.299 240.158 479.076 240.674 478.696C366.717 384.821 428.206 241.14 428.442 39.8299C428.442 38.5945 427.63 37.4811 426.415 37.0789C395.478 27.231 323.547 20.8022 238.731 20.4359C237.062 20.4359 235.673 21.7288 235.673 23.3091V10.3223C322.303 10.5449 406.496 17.0958 437.373 30.2622C438.443 30.7291 439.103 31.7563 439.103 32.8696Z" fill="#97BF0D"/>
<path d="M426.408 37.0785C427.622 37.4808 428.434 38.5941 428.434 39.8296C428.199 241.147 366.717 384.828 240.666 478.695C240.15 479.076 239.558 479.299 238.913 479.32H238.868C237.115 479.399 235.666 478.106 235.666 476.447V23.3087C235.666 21.7285 237.054 20.4355 238.724 20.4355C323.539 20.8019 395.47 27.2306 426.408 37.0785Z" fill="#D2E877"/>
<path d="M235.673 489.578V496.962C235.673 498.298 234.687 499.426 233.366 499.735C230.764 499.792 227.941 499.836 224.989 499.836C222.037 499.836 219.222 499.792 216.596 499.735C215.268 499.433 214.312 498.298 214.312 496.962V489.578C216.702 489.636 219.29 489.679 221.938 489.7C223.608 489.722 224.996 488.429 224.996 486.827C224.996 488.422 226.362 489.722 228.055 489.7C230.703 489.679 233.291 489.643 235.681 489.578H235.673Z" fill="#97BF0D"/>
<path d="M235.673 476.455V489.578C233.283 489.635 230.695 489.678 228.047 489.7C226.362 489.722 224.989 488.429 224.989 486.827V13.1955C224.989 11.6009 226.332 10.3008 228.024 10.3008C230.566 10.3008 233.131 10.3008 235.673 10.3223V476.455Z" fill="#97BF0D"/>
<path d="M235.673 3.04633V10.3227C233.131 10.3011 230.566 10.3011 228.024 10.3011C226.339 10.3011 224.989 11.5941 224.989 13.1959C224.966 11.6013 223.623 10.3227 221.931 10.3227C219.388 10.3442 216.846 10.3442 214.304 10.3801V3.10379C214.304 1.60973 215.518 0.352709 217.082 0.252147C219.707 0.230598 222.34 0.209049 224.943 0.209049C227.546 0.209049 230.202 0.1875 232.865 0.1875C234.429 0.309611 235.666 1.54508 235.666 3.03914L235.673 3.04633Z" fill="#97BF0D"/>
<path d="M233.366 499.728C233.131 499.807 232.896 499.828 232.638 499.828H224.989C227.941 499.828 230.756 499.785 233.366 499.728Z" fill="#DB7726"/>
<path d="M232.873 0.194401C230.202 0.194401 227.576 0.215949 224.951 0.215949L232.623 0.172852C232.706 0.172852 232.797 0.172852 232.881 0.194401H232.873Z" fill="#DB7726"/>
<path d="M224.989 13.1951V486.826C224.989 488.421 223.6 489.721 221.931 489.7C219.282 489.678 216.695 489.642 214.304 489.577V10.3866C216.846 10.3435 219.388 10.3435 221.931 10.3291C223.615 10.3291 224.966 11.6005 224.989 13.2023V13.1951Z" fill="#97BF0D"/>
<path d="M224.989 499.828H217.34C217.082 499.828 216.824 499.807 216.588 499.728C219.214 499.785 222.037 499.828 224.981 499.828H224.989Z" fill="#D56C06"/>
<path d="M217.325 0.230533L224.951 0.208984C222.348 0.208984 219.715 0.230533 217.089 0.252082C217.15 0.230533 217.241 0.230533 217.325 0.230533Z" fill="#D56C06"/>
<path d="M216.596 499.728C211.959 499.649 207.968 499.462 205.122 499.203L202.922 499.024C202.345 498.981 201.791 498.758 201.343 498.435L199.568 497.142C126.651 443.815 73.1599 373.199 40.5525 287.269C12.6727 213.802 -0.523493 129.962 0.22017 30.9736L0.265701 26.161C0.265701 25.0117 1.01695 23.9773 2.12486 23.532L6.82208 21.6931C45.1511 6.74537 139.065 0.840957 217.089 0.251953C215.526 0.352515 214.312 1.60954 214.312 3.1036V10.3871C129.921 11.1557 47.1545 17.8862 12.8017 30.3199C11.6483 30.7437 10.8971 31.814 10.8819 32.992C9.91815 207.373 53.4377 377.035 205.38 488.601C205.851 488.946 206.405 489.169 207.004 489.205C209.03 489.348 211.557 489.47 214.312 489.571V496.955C214.312 498.291 215.276 499.419 216.596 499.728Z" fill="#9BBA15"/>
<path d="M214.312 23.4097V476.455C214.312 478.114 212.84 479.407 211.11 479.328H211.064C210.442 479.306 209.827 479.083 209.334 478.703C83.3891 384.9 21.8851 241.363 21.5664 40.2753C21.5664 39.0039 22.4239 37.869 23.7063 37.5027C57.3761 27.8344 128.024 21.4056 211.239 20.5149C212.923 20.4934 214.312 21.7863 214.312 23.4097Z" fill="#B4CC25"/>
<path d="M214.312 476.454V489.578C211.557 489.477 209.038 489.355 207.004 489.211C206.405 489.168 205.851 488.945 205.38 488.608C53.4376 377.035 9.91806 207.373 10.8818 32.9916C10.9046 31.8207 11.6482 30.7433 12.8017 30.3195C47.1544 17.8857 129.921 11.1553 214.312 10.3867V23.4095C214.312 21.7933 212.923 20.5004 211.238 20.5147C128.024 21.4054 57.3759 27.8342 23.7062 37.5025C22.4238 37.8688 21.5663 38.9965 21.5663 40.2751C21.885 241.37 83.3966 384.907 209.334 478.695C209.827 479.076 210.442 479.299 211.064 479.32H211.109C212.84 479.399 214.312 478.106 214.312 476.447V476.454Z" fill="#9BBA15"/>
<path d="M369.741 224.18C366.053 235.35 372.283 243.46 369.741 249.227C367.654 253.997 336.496 277.679 294.047 284.23C258.95 278.527 220.181 275.948 188.796 282.427C157.41 288.913 111.447 278.283 88.4009 275.402C84.7812 272.536 78.9609 240.989 78.9609 240.989C87.7331 243.007 97.9547 244.286 108.905 245.176C108.996 245.176 109.087 245.198 109.155 245.198C139.926 248.452 171.152 249.077 192.483 249.235C196.467 247.698 201.165 246.742 206.393 246.196H206.461C235.032 244.307 291.505 253.135 299.594 249.235C299.935 249.213 300.307 249.192 300.649 249.148C301.241 249.105 301.84 249.041 302.409 248.976C303.145 248.89 303.874 248.782 304.61 248.674C318.034 246.721 328.346 240.716 337.536 235.099C345.716 230.458 353.16 226.034 359.831 224.317C363.018 223.642 366.288 223.534 369.749 224.188L369.741 224.18Z" fill="#F9EBCD"/>
<path d="M313.496 199.004C344.13 206.072 371.092 213.075 369.741 224.18C366.645 223.225 363.351 223.397 359.823 224.31C352.356 225.825 345.344 230.315 337.528 235.091C327.61 240.73 316.637 246.713 304.602 248.667C303.866 248.775 303.137 248.883 302.401 248.969C301.832 249.033 301.233 249.098 300.641 249.141C300.299 249.184 299.928 249.206 299.586 249.227C298.805 249.27 298.053 249.335 297.249 249.357L297.112 244.673C311.887 244.156 353.54 220.797 352.925 216.696C345.549 210.296 324.605 206.999 313.518 202.947C313.222 202.84 312.896 202.732 312.577 202.646L313.496 199.004Z" fill="#FFFCF3"/>
<path d="M352.925 216.696C353.547 220.797 311.895 244.149 297.112 244.674C287.877 239.947 210.946 234.567 201.711 227.585C204.784 224.094 217.108 211.862 209.087 197.287C209.087 197.287 220.174 182.713 224.347 180.982C228.544 179.222 243.569 186.793 253.418 197.287C262.995 207.502 300.383 199.371 312.578 202.646C312.896 202.732 313.223 202.84 313.518 202.948C324.605 207.006 345.549 210.303 352.925 216.696Z" fill="#C64E20"/>
<path d="M359.823 224.31C353.153 226.026 345.709 230.444 337.528 235.091C345.344 230.322 352.348 225.832 359.823 224.31Z" fill="#F2E5DF"/>
<path d="M313.496 199.004L312.578 202.646C300.391 199.371 262.995 207.502 253.418 197.288C243.569 186.793 228.536 179.222 224.347 180.982C220.181 182.721 209.087 197.288 209.087 197.288C217.108 211.862 204.777 224.095 201.711 227.585C210.946 234.567 287.877 239.947 297.112 244.674L297.249 249.357C269.733 250.679 231.928 243.524 206.454 246.189H206.385C200.133 246.599 195.231 247.533 192.476 249.228C167.571 247.102 136.185 247.36 109.148 245.191C109.079 245.191 108.988 245.169 108.897 245.169C98.7515 244.085 88.621 242.72 78.9534 240.982C78.9534 240.982 73.687 172.32 194.335 165.927C206.408 166.774 225.311 172.241 251.977 182.519C268.588 189.027 291.952 194.034 313.496 199.004ZM194.13 208.091C181.389 199.047 209.709 179.811 206.021 174.561C174.636 163.499 128.468 185.055 128.468 185.055C113.693 193.208 92.1572 220.596 94.6083 228.756C103.843 234.567 167.852 238.08 185.085 228.756C202.333 219.433 190.632 219.433 185.085 217.091C190.01 215.353 206.871 217.134 194.138 208.091H194.13Z" fill="#FFFCF3"/>
<path d="M297.249 249.358C298.053 249.336 298.805 249.271 299.586 249.228C291.497 253.129 235.024 244.308 206.454 246.19C231.928 243.525 269.733 250.679 297.249 249.358Z" fill="#F2E5DF"/>
<path d="M206.021 174.561C209.709 179.812 181.389 199.048 194.13 208.091C206.871 217.134 190.01 215.353 185.077 217.091C190.625 219.433 202.326 219.433 185.077 228.756C167.852 238.08 103.836 234.567 94.6008 228.756C92.1498 220.604 113.686 193.215 128.46 185.055C128.46 185.055 174.628 163.499 206.014 174.561H206.021Z" fill="#C64E20"/>
<path d="M192.476 249.228C171.145 249.077 139.918 248.445 109.147 245.191C136.185 247.361 167.571 247.102 192.476 249.228Z" fill="#F2E5DF"/>
<path d="M108.897 245.169C97.9474 244.279 87.7258 243 78.9536 240.982C78.9536 240.982 84.7739 272.536 88.3936 275.395C111.44 278.283 157.403 288.906 188.788 282.42C220.174 275.934 258.943 278.52 294.039 284.223C336.496 277.672 367.654 253.99 369.734 249.221C372.276 243.453 366.046 235.343 369.734 224.173C366.273 223.52 362.995 223.635 359.816 224.303C352.349 225.818 345.337 230.308 337.521 235.084C328.331 240.702 318.026 246.706 304.595 248.66" stroke="#D56C06" stroke-width="7" stroke-miterlimit="10"/>
<path d="M206.385 246.189C201.164 246.728 196.467 247.683 192.476 249.227C167.571 247.101 136.185 247.36 109.147 245.19" stroke="#D56C06" stroke-width="7" stroke-miterlimit="10"/>
<path d="M299.586 249.227C298.805 249.27 298.053 249.335 297.249 249.357C269.733 250.678 231.928 243.524 206.454 246.189" stroke="#D56C06" stroke-width="7" stroke-miterlimit="10"/>
<path d="M302.402 248.969C301.832 249.033 301.233 249.098 300.641 249.141" stroke="#D56C06" stroke-width="7" stroke-miterlimit="10"/>
<path d="M78.9534 240.989C78.9534 240.989 73.687 172.326 194.335 165.934C206.408 166.781 225.311 172.247 251.977 182.526C268.588 189.034 291.952 194.041 313.496 199.011C344.13 206.079 371.092 213.083 369.741 224.188C366.645 223.232 363.352 223.405 359.823 224.317C353.153 226.034 345.709 230.451 337.528 235.098C327.61 240.737 316.637 246.721 304.602 248.674C303.866 248.782 303.138 248.89 302.402 248.976C301.832 249.041 301.233 249.105 300.641 249.148C300.3 249.191 299.928 249.213 299.586 249.235C291.497 253.135 235.024 244.314 206.454 246.196H206.385C200.133 246.606 195.231 247.539 192.476 249.235C171.145 249.084 139.919 248.452 109.148 245.198C109.079 245.198 108.988 245.176 108.897 245.176C98.7515 244.092 88.621 242.727 78.9534 240.989Z" stroke="#D56C06" stroke-width="7" stroke-miterlimit="10"/>
<path d="M128.468 185.055C113.693 193.208 92.1571 220.596 94.6082 228.756C103.843 234.567 167.851 238.08 185.085 228.756C202.333 219.433 190.632 219.433 185.085 217.091C190.01 215.353 206.871 217.134 194.138 208.091C181.397 199.048 209.717 179.812 206.029 174.561C174.643 163.499 128.475 185.055 128.475 185.055H128.468Z" stroke="#FFFCF3" stroke-width="4" stroke-miterlimit="10"/>
<path d="M312.578 202.646C300.391 199.371 262.995 207.502 253.418 197.287C243.569 186.793 228.536 179.222 224.347 180.982C220.181 182.72 209.087 197.287 209.087 197.287C217.108 211.862 204.777 224.094 201.711 227.585C210.946 234.567 287.877 239.947 297.112 244.674C311.887 244.156 353.54 220.797 352.925 216.696C345.549 210.296 324.605 206.999 313.518 202.948C313.223 202.84 312.896 202.732 312.578 202.646Z" stroke="#FFFCF3" stroke-width="4" stroke-miterlimit="10"/>
</g>
<defs>
<clipPath id="clip0_641_1037">
<rect width="450" height="500" fill="white"/>
</clipPath>
</defs>
</svg>
