<svg width="445" height="523" viewBox="0 0 445 523" fill="none" xmlns="http://www.w3.org/2000/svg">
<g clip-path="url(#clip0_640_1177)">
<path d="M232.73 2.99V518.68C232.73 520.35 231.38 521.68 229.73 521.68H222.17C214.1 521.68 206.97 521.45 202.53 521.05L200.33 520.86C199.76 520.8 199.23 520.59 198.77 520.25L197.04 518.9C124.98 463.22 72.0998 389.49 39.8598 299.77C12.3398 223.05 -0.710231 135.51 0.0297693 32.15L0.0497693 27.12C0.0697693 25.92 0.789769 24.84 1.90977 24.38L6.55977 22.46C45.7198 6.33 143.59 0.29 222.13 0.02L229.71 0C231.38 0 232.73 1.35 232.73 3V2.99ZM222.17 508.12V13.59C222.17 11.94 220.8 10.59 219.15 10.59C133.15 11.03 47.3998 18.09 12.4598 31.47C11.3198 31.91 10.5598 33.03 10.5598 34.26C9.60977 216.31 52.6198 393.48 202.79 509.97C203.25 510.33 203.8 510.56 204.37 510.6C208.13 510.9 213.49 511.06 219.13 511.11C220.8 511.11 222.17 509.78 222.17 508.11V508.12Z" fill="#9BBA15"/>
<path d="M222.17 13.5898V508.12C222.17 509.79 220.8 511.12 219.13 511.12C213.49 511.08 208.13 510.91 204.37 510.61C203.8 510.57 203.25 510.34 202.79 509.98C52.6198 393.49 9.60975 216.31 10.5598 34.2598C10.5598 33.0398 11.3198 31.9198 12.4598 31.4698C47.4098 18.0898 133.16 11.0398 219.16 10.5898C220.81 10.5898 222.18 11.9398 222.18 13.5898H222.17ZM211.61 497.28V24.2298C211.61 22.5598 210.22 21.2098 208.55 21.2298C126.33 22.1598 56.4998 28.8698 23.2098 38.9698C21.9398 39.3498 21.0998 40.5298 21.0998 41.8398C21.4398 251.82 82.2098 401.68 206.7 499.63C207.19 500.03 207.78 500.24 208.41 500.28H208.45C210.16 500.36 211.62 498.99 211.62 497.28H211.61Z" fill="#9BBA15"/>
<path d="M211.62 24.2297V497.29C211.62 499 210.16 500.37 208.45 500.29H208.41C207.78 500.25 207.19 500.04 206.7 499.64C82.2097 401.68 21.4397 251.83 21.0997 41.8397C21.0997 40.5297 21.9397 39.3497 23.2097 38.9697C56.5097 28.8797 126.33 22.1597 208.55 21.2297C210.22 21.2097 211.61 22.5597 211.61 24.2297H211.62Z" fill="#F99D4B"/>
<path d="M239.97 510.611C236.21 510.911 230.82 511.071 225.19 511.111C223.52 511.121 222.16 509.781 222.16 508.111V13.5808C222.16 11.9208 223.5 10.5808 225.16 10.5708C313.4 10.4208 400.64 17.2608 432.06 31.4108C433.12 31.8908 433.78 32.9608 433.79 34.1208C434.77 216.231 391.77 393.461 241.57 509.971C241.1 510.331 240.56 510.551 239.97 510.601V510.611Z" fill="#FFCA7D"/>
<path d="M222.17 521.68H214.61C212.95 521.68 211.61 520.34 211.61 518.68V3.05041C211.61 1.40041 212.95 0.0604092 214.6 0.0504092L222.13 0.0204092C303.85 -0.229591 403.55 5.56041 438.44 22.7504L442.62 24.8104C443.64 25.3104 444.29 26.3404 444.29 27.4804L444.32 32.1504C445.05 135.51 432.01 223.05 404.46 299.75C372.24 389.47 319.36 463.2 247.29 518.88L245.55 520.23C245.1 520.58 244.56 520.79 243.99 520.84L241.8 521.04C237.38 521.44 230.22 521.68 222.15 521.68H222.17ZM232.72 24.1504V497.29C232.72 499.01 234.17 500.37 235.88 500.29C235.9 500.29 235.92 500.29 235.94 500.29C236.57 500.26 237.16 500.03 237.65 499.64C362.22 401.62 422.99 251.61 423.24 41.3904C423.24 40.1104 422.44 38.9404 421.23 38.5304C390.66 28.2504 319.58 21.5404 235.75 21.1504C234.09 21.1504 232.72 22.4904 232.72 24.1604V24.1504Z" fill="#97BF0D"/>
<path d="M309.94 199.18C321.96 208.01 327.54 222.99 324.15 237.35C319.99 254.97 305.98 267.99 282.65 272.4C282.44 272.44 282.35 272.61 282.35 272.83C282.176 280.47 281.61 298.65 280.65 327.37L280.43 331.35C280.36 332.66 278.91 333.42 277.8 332.73L274.41 330.62C249.67 315.31 213.72 322.31 187.47 327.41C176.95 329.46 167.85 331.24 161.24 331.24H159.95C158.39 331.24 157.14 329.98 157.14 328.43V327.14C157.14 322.19 158.36 315.55 159.89 307.16C162.37 293.58 164.43 286.51 164.31 286.45C138.92 272.07 100.02 244.01 106.72 209.88C110.75 189.4 131.39 173 156.93 170C181.32 167.13 202.27 177.95 211.65 198.24C211.65 198.25 211.66 198.26 211.67 198.28C217.07 207.18 219.89 209.84 224.17 210.03C227.95 210.19 235.72 206.53 238.44 204.9C278.02 181.4 301.62 193.04 309.94 199.15V199.18ZM316.18 235.46C318.81 224.31 314.46 212.66 305.08 205.78C298.08 200.64 277.98 190.96 242.63 211.97C240.3 213.35 231.91 217.04 229.85 217.08C211.51 222.02 187.87 220.85 178.69 220.13C176.58 219.97 175.05 218.09 175.27 216L175.32 215.61C175.55 213.42 177.49 211.82 179.67 211.98C185.7 212.42 197.81 213.03 210.14 212.04C211.15 211.96 211.59 210.72 210.84 210.05C208.57 208.03 204.2 200.07 204.2 200.07C196.29 182.72 179.04 175.67 157.89 178.15C139.28 180.34 118.49 192.49 114.76 211.47C112.38 223.56 116.81 248.46 162.15 276.17C163.05 276.72 165.3 275.19 164.5 272.81C163.15 268.76 160.7 265.11 159.06 260.95C158.86 260.45 158.77 259.92 158.77 259.41C158.77 257.85 159.65 256.37 161.15 255.66C163.26 254.69 165.77 255.65 166.64 257.81C173.91 276.06 173.8 266.81 171.78 284.39C171.62 285.77 172.83 286.94 174.2 286.67C195.97 282.55 217.59 286.16 225.98 287.92C227.97 288.34 229.19 290.33 228.67 292.3L228.51 292.93C227.97 295 225.91 296.28 223.82 295.86C215.16 294.12 192.78 290.58 171.79 295.57C170.8 295.8 170.06 296.64 169.89 297.63C169.23 301.53 168.57 305.21 167.94 308.63C167.16 312.91 166.44 316.88 165.95 320.26C165.76 321.55 166.86 322.66 168.15 322.5C173.17 321.84 179.23 320.66 185.89 319.36C210.9 314.49 244.3 307.99 270.78 319.5C271.75 319.93 272.86 319.25 272.91 318.19C275.6 263.26 275.11 262.58 269.76 260.98C265.24 259.62 255.39 260.59 246.41 263.7C238.56 266.43 228.99 269.73 217.99 270.72C215.74 270.93 213.8 269.18 213.72 266.92V266.52C213.64 264.47 215.21 262.75 217.24 262.56C227.21 261.67 235.94 258.65 243.73 255.96C254.57 252.21 268.87 250.46 277.03 254.44C280.47 256.11 281.13 259.44 282.29 263.84C282.38 264.31 282.72 264.5 282.91 264.47C303.6 260.74 312.71 250.18 316.19 235.44L316.18 235.46Z" fill="#97BF0D"/>
<path d="M305.08 205.78C314.46 212.66 318.81 224.31 316.18 235.46C312.7 250.2 303.6 260.75 282.9 264.49C282.71 264.51 282.37 264.33 282.28 263.86C281.12 259.46 280.47 256.14 277.02 254.46C268.86 250.48 254.56 252.24 243.72 255.98C235.94 258.67 227.21 261.69 217.23 262.58C215.19 262.77 213.63 264.49 213.7 266.54V266.94C213.79 269.2 215.74 270.95 217.98 270.74C228.98 269.75 238.54 266.44 246.4 263.72C255.38 260.62 265.23 259.65 269.75 261C275.1 262.6 275.59 263.28 272.9 318.21C272.85 319.28 271.74 319.95 270.77 319.52C244.28 308.01 210.89 314.51 185.88 319.38C179.22 320.68 173.16 321.86 168.14 322.52C166.85 322.68 165.75 321.57 165.94 320.28C166.43 316.9 167.15 312.93 167.93 308.65C168.56 305.23 169.23 301.55 169.88 297.65C170.04 296.66 170.78 295.82 171.78 295.59C192.77 290.6 215.14 294.14 223.81 295.88C225.91 296.3 227.97 295.03 228.5 292.95L228.66 292.32C229.17 290.35 227.96 288.36 225.97 287.94C217.58 286.17 195.96 282.57 174.19 286.69C172.82 286.96 171.6 285.79 171.77 284.41C173.79 266.83 173.9 276.08 166.63 257.83C165.76 255.66 163.25 254.7 161.14 255.68C159.64 256.38 158.76 257.87 158.76 259.43C158.76 259.94 158.85 260.47 159.05 260.97C160.69 265.13 163.15 268.78 164.49 272.83C165.29 275.21 163.04 276.74 162.14 276.19C116.8 248.47 112.37 223.58 114.75 211.49C118.48 192.51 139.27 180.36 157.88 178.17C179.03 175.69 196.28 182.75 204.19 200.09C204.19 200.09 208.56 208.05 210.83 210.07C211.58 210.74 211.13 211.98 210.13 212.06C197.81 213.05 185.69 212.45 179.66 212C177.47 211.84 175.54 213.44 175.31 215.63L175.26 216.02C175.04 218.12 176.57 219.99 178.68 220.15C187.86 220.86 211.5 222.03 229.84 217.1C231.9 217.05 240.29 213.37 242.62 211.99C277.98 190.98 298.08 200.66 305.07 205.8L305.08 205.78Z" fill="#FFFCF3"/>
<path d="M122.23 339.39C149.46 372.45 168.56 417.81 180.91 429.1C191.12 438.43 205.71 430.97 188.96 414.05C172.21 397.13 147.14 357.65 133.91 335.57C124.37 294.96 93.0197 258.19 84.4397 268.39C72.2897 282.83 85.5798 309.32 95.1398 321.07C104.99 333.17 122.23 339.41 122.23 339.41V339.39Z" fill="#FFFCF3"/>
<path d="M190.26 436.07C186.58 436.07 182.44 434.41 178.95 431.22C172.97 425.75 165.96 413.54 157.08 398.09C147.85 382.02 136.54 362.34 123.38 345.45C121.63 343.2 119.37 341.42 116.78 340.23C110.78 337.48 100.08 331.7 92.8897 322.87C81.8397 309.31 69.1697 282.01 82.2197 266.5C84.2397 264.1 87.2297 263.23 90.6597 264.05C97.5697 265.7 107.03 274.6 115.95 287.86C125.01 301.31 132.07 316.9 136.01 332.05C136.42 333.63 137.03 335.15 137.87 336.54C154.45 364 176.66 397.5 191 411.99C195.2 416.23 197.87 420.26 198.94 423.94C200.41 428.99 198.47 431.99 197.19 433.32C195.42 435.16 192.96 436.06 190.25 436.06L190.26 436.07ZM88.2097 269.54C87.2197 269.54 86.8397 269.99 86.6397 270.23C80.7397 277.24 82.1697 287.5 84.3997 294.88C87.3897 304.76 93.0597 313.93 97.3697 319.22C105.43 329.12 119.45 335.25 122.82 336.63C123.39 336.86 123.94 337.17 124.39 337.59C124.66 337.84 124.9 338.1 125.13 338.38C139.76 356.34 152.12 377.86 162.09 395.21C170.38 409.64 177.53 422.1 182.85 426.96C187.12 430.86 191.58 430.84 193.03 429.33C194.69 427.61 193.47 422.72 186.9 416.08C168.02 397 140.94 351.53 132.47 337.42C132.32 337.17 132.19 336.92 132.09 336.65L132.07 336.6C131.97 336.35 131.89 336.1 131.83 335.84C128.19 320.59 120.33 304.72 111.17 291.11C103.28 279.39 94.6997 270.98 89.3297 269.7C88.8997 269.6 88.5297 269.55 88.2297 269.55L88.2097 269.54Z" fill="#97BF0D"/>
<path d="M89.6498 280.539C90.4298 294.659 101.13 312.979 110.53 318.679Z" fill="#FFFCF3"/>
<path d="M106.81 319.619C97.5597 312.469 88.7197 296.299 87.0097 283.329C86.8197 281.919 87.8597 280.649 89.2797 280.569L90.2097 280.519C91.4897 280.449 92.5897 281.389 92.7497 282.659C94.3097 294.979 102.85 309.209 110.27 314.999C111.24 315.759 111.49 317.109 110.85 318.169L110.36 318.969C109.61 320.209 107.95 320.519 106.8 319.639L106.81 319.619Z" fill="#97BF0D"/>
<path d="M284.1 386.34C284.16 386.93 283.99 387.5 283.59 387.99L281.46 390.59C278.93 389.03 276.77 387.27 275.63 386.26C275.1 385.82 274.34 385.86 273.86 386.34L271.26 389.09C270.75 389.62 270.8 390.46 271.34 390.93C272.54 391.99 274.74 393.8 277.4 395.53L246.87 432.71C246.05 433.7 244.57 433.87 243.55 433.05L238.12 428.72C237.66 428.34 237.36 427.79 237.3 427.2C237.24 426.61 237.41 426.04 237.79 425.57L240.75 421.96C242.02 423.25 243.64 424.77 245.48 426.2C246.07 426.66 246.94 426.52 247.38 425.9L249.53 422.94C249.95 422.35 249.8 421.53 249.23 421.08C247.48 419.69 245.94 418.21 244.8 417.03L274.53 380.82C274.99 380.25 275.67 379.95 276.35 379.95C276.88 379.95 277.41 380.12 277.83 380.48L283.28 384.83C283.74 385.19 284.04 385.74 284.1 386.33V386.34Z" fill="#FFFCF3"/>
<path d="M380.55 284.67C380.4 277.01 376.6 270.59 369.23 265.6C361.78 260.53 354.3 259.12 347 261.4C324.98 268.24 305.38 307.89 279.33 374.15C275.95 372.93 272.02 373.9 269.64 376.79L232.9 421.53C231.44 423.32 230.77 425.56 231 427.86C231.25 430.14 232.37 432.19 234.19 433.65L239.62 438C241.2 439.27 243.12 439.88 245.05 439.88C247.56 439.88 250.08 438.8 251.76 436.73L288.5 391.99C289.98 390.2 290.65 387.96 290.4 385.68C290.32 384.84 290.1 384.03 289.79 383.27C352.08 337.22 380.96 305.84 380.56 284.66L380.55 284.67ZM283.59 387.98L281.46 390.58C278.93 389.02 276.77 387.26 275.63 386.25C275.1 385.81 274.34 385.85 273.86 386.33L271.26 389.08C270.75 389.61 270.8 390.45 271.34 390.92C272.54 391.98 274.74 393.79 277.4 395.52L246.87 432.7C246.05 433.69 244.57 433.86 243.55 433.04L238.12 428.71C237.66 428.33 237.36 427.78 237.3 427.19C237.24 426.6 237.41 426.03 237.79 425.56L240.75 421.95C242.02 423.24 243.64 424.76 245.48 426.19C246.07 426.65 246.94 426.51 247.38 425.89L249.53 422.93C249.95 422.34 249.8 421.52 249.23 421.07C247.48 419.68 245.94 418.2 244.8 417.02L274.53 380.81C274.99 380.24 275.67 379.94 276.35 379.94C276.88 379.94 277.41 380.11 277.83 380.47L283.28 384.82C283.74 385.18 284.04 385.73 284.1 386.32C284.16 386.91 283.99 387.48 283.59 387.97V387.98ZM348.88 267.44C350.53 266.93 352.15 266.68 353.82 266.68C355.89 266.68 357.98 267.08 360.09 267.88C346.3 276.05 317 312.01 291.96 355.95C311.22 310.05 332.53 272.51 348.88 267.44ZM365.92 271.92C365.6 278.99 348.16 308.93 295.1 364.32C328.02 302.71 358.49 273.99 365.92 271.92ZM302.45 365.75C341.01 325.19 366.43 292.04 371.3 276.1C373.2 278.7 374.15 281.57 374.21 284.78C374.53 301.69 351.01 328.28 302.44 365.75H302.45Z" fill="#97BF0D"/>
<path d="M373.83 95.1999L354.19 114.33L358.84 141.35L334.58 128.6L310.31 141.35L314.94 114.33L295.3 95.1999L322.43 91.2499L334.58 66.6699L346.7 91.2499L373.83 95.1999Z" fill="#FFFCF3"/>
<path d="M272.88 78.52L247.03 103.68L253.14 139.24L221.21 122.46L189.29 139.24L195.39 103.68L169.56 78.52L205.25 73.34L221.21 41L237.17 73.34L272.88 78.52Z" fill="#FFFCF3"/>
<path d="M149.53 95.1999L129.89 114.33L134.54 141.35L110.25 128.6L85.99 141.35L90.64 114.33L71 95.1999L98.13 91.2499L110.25 66.6699L122.39 91.2499L149.53 95.1999Z" fill="#FFFCF3"/>
<path d="M221.21 41L237.17 73.34L272.88 78.52L247.03 103.68L253.14 139.24L221.21 122.46L189.29 139.24L195.39 103.68L169.56 78.52L205.25 73.34L221.21 41Z" stroke="#97BF0D" stroke-width="3" stroke-miterlimit="10"/>
<path d="M334.58 66.6699L346.7 91.2499L373.83 95.1999L354.19 114.33L358.84 141.35L334.58 128.6L310.31 141.35L314.94 114.33L295.3 95.1999L322.43 91.2499L334.58 66.6699Z" stroke="#97BF0D" stroke-width="3" stroke-miterlimit="10"/>
<path d="M110.25 66.6699L122.39 91.2499L149.53 95.1999L129.89 114.33L134.54 141.35L110.25 128.6L85.99 141.35L90.64 114.33L71 95.1999L98.13 91.2499L110.25 66.6699Z" stroke="#97BF0D" stroke-width="3" stroke-miterlimit="10"/>
</g>
<defs>
<clipPath id="clip0_640_1177">
<rect width="444.62" height="522.18" fill="white"/>
</clipPath>
</defs>
</svg>
