<svg width="450" height="500" viewBox="0 0 450 500" fill="none" xmlns="http://www.w3.org/2000/svg">
<path d="M235.546 2.863V496.649C235.546 498.248 234.18 499.521 232.51 499.521H224.858C216.69 499.521 209.474 499.301 204.98 498.918L202.754 498.736C202.177 498.679 201.64 498.478 201.175 498.152L199.424 496.859C126.492 443.544 72.9722 372.946 40.3421 287.037C12.4891 213.576 -0.718825 129.754 0.0301295 30.7844L0.0503716 25.9681C0.0706136 24.819 0.799326 23.7849 1.93288 23.3444L6.63914 21.506C46.273 6.06113 145.327 0.277682 224.818 0.0191505L232.489 0C234.18 0 235.546 1.29266 235.546 2.87257V2.863ZM224.858 486.537V13.0128C224.858 11.4328 223.472 10.1402 221.802 10.1402C134.761 10.5615 47.9733 17.3216 12.6105 30.1333C11.4567 30.5546 10.6875 31.627 10.6875 32.8048C9.72605 207.122 53.2565 376.767 205.244 488.309C205.709 488.653 206.266 488.874 206.843 488.912C210.648 489.199 216.073 489.352 221.781 489.4C223.472 489.4 224.858 488.127 224.858 486.528V486.537Z" fill="#9BBA15"/>
<path d="M224.858 13.0132V486.538C224.858 488.137 223.472 489.41 221.781 489.41C216.073 489.372 210.648 489.209 206.843 488.922C206.266 488.884 205.709 488.663 205.244 488.319C53.2566 376.777 9.72613 207.123 10.6876 32.8052C10.6876 31.637 11.4568 30.5646 12.6106 30.1337C47.9835 17.3221 134.771 10.5715 221.812 10.1406C223.482 10.1406 224.868 11.4333 224.868 13.0132H224.858ZM214.17 476.158V23.2013C214.17 21.6022 212.764 20.3095 211.073 20.3287C127.858 21.2192 57.1835 27.6442 23.4907 37.3152C22.2053 37.679 21.3552 38.8089 21.3552 40.0633C21.6993 241.124 83.2046 384.619 209.201 478.408C209.697 478.791 210.294 478.992 210.932 479.031H210.972C212.703 479.107 214.18 477.795 214.18 476.158H214.17Z" fill="#9BBA15"/>
<path d="M214.18 23.2009V476.167C214.18 477.805 212.703 479.117 210.972 479.04H210.931C210.294 479.002 209.697 478.801 209.201 478.418C83.2044 384.618 21.6991 241.133 21.355 40.0629C21.355 38.8086 22.2051 37.6787 23.4905 37.3148C57.1934 27.6534 127.858 21.2188 211.073 20.3283C212.763 20.3092 214.17 21.6018 214.17 23.2009H214.18Z" fill="#F99D4B"/>
<path d="M242.873 488.922C239.068 489.209 233.613 489.362 227.915 489.401C226.224 489.41 224.848 488.127 224.848 486.528V13.0036C224.848 11.4141 226.204 10.131 227.884 10.1215C317.192 9.97782 405.488 16.5273 437.288 30.0763C438.361 30.5359 439.029 31.5604 439.039 32.6711C440.031 207.046 396.51 376.748 244.493 488.309C244.017 488.654 243.471 488.864 242.873 488.912V488.922Z" fill="#FFCA7D"/>
<path d="M224.858 499.521H217.206C215.526 499.521 214.17 498.238 214.17 496.649V2.9204C214.17 1.34049 215.526 0.057406 217.196 0.0478307L224.817 0.019105C307.526 -0.220276 408.433 5.32379 443.745 21.7836L447.975 23.7561C449.008 24.2349 449.666 25.2211 449.666 26.3127L449.696 30.7844C450.435 129.754 437.237 213.576 409.354 287.018C376.744 372.927 323.224 443.525 250.282 496.84L248.521 498.133C248.065 498.468 247.519 498.669 246.942 498.717L244.725 498.908C240.252 499.291 233.005 499.521 224.838 499.521H224.858ZM235.536 23.1242V476.167C235.536 477.814 237.003 479.116 238.734 479.04C238.754 479.04 238.774 479.04 238.795 479.04C239.432 479.011 240.029 478.791 240.525 478.417C366.603 384.561 428.108 240.923 428.361 39.6319C428.361 38.4063 427.551 37.2859 426.327 36.8934C395.387 27.05 323.447 20.625 238.602 20.2516C236.922 20.2516 235.536 21.5347 235.536 23.1337V23.1242Z" fill="#97BF0D"/>
<path d="M313.69 190.72C325.856 199.175 331.503 213.519 328.072 227.269C323.862 244.14 309.682 256.607 286.07 260.83C285.857 260.868 285.766 261.031 285.766 261.242C285.591 268.557 285.017 285.965 284.046 313.465L283.823 317.276C283.752 318.531 282.285 319.258 281.161 318.598L277.73 316.577C252.691 301.917 216.306 308.62 189.738 313.504C179.091 315.466 169.881 317.171 163.191 317.171H161.885C160.306 317.171 159.041 315.964 159.041 314.48V313.245C159.041 308.505 160.276 302.147 161.824 294.114C164.334 281.11 166.419 274.341 166.298 274.283C140.601 260.514 101.23 233.646 108.011 200.966C112.09 181.356 132.98 165.652 158.829 162.78C183.514 160.032 204.717 170.392 214.211 189.82C214.211 189.83 214.221 189.839 214.231 189.858C219.696 198.38 222.551 200.927 226.882 201.109C230.708 201.263 238.572 197.758 241.325 196.197C281.384 173.695 305.269 184.841 313.69 190.691V190.72ZM320.006 225.459C322.667 214.783 318.265 203.628 308.771 197.04C301.687 192.118 281.343 182.849 245.566 202.967C243.207 204.288 234.716 207.822 232.631 207.86C214.069 212.59 190.143 211.47 180.852 210.78C178.716 210.627 177.168 208.827 177.391 206.826L177.441 206.452C177.674 204.355 179.637 202.823 181.844 202.976C187.947 203.398 200.203 203.982 212.683 203.034C213.705 202.957 214.15 201.77 213.391 201.128C211.094 199.194 206.671 191.572 206.671 191.572C198.665 174.959 181.206 168.209 159.8 170.583C140.965 172.68 119.924 184.314 116.148 202.488C113.74 214.065 118.223 237.907 164.112 264.44C165.023 264.967 167.3 263.502 166.49 261.223C165.124 257.345 162.644 253.85 160.984 249.866C160.782 249.388 160.691 248.88 160.691 248.392C160.691 246.898 161.582 245.481 163.1 244.801C165.235 243.872 167.776 244.792 168.656 246.86C176.014 264.335 175.903 255.478 173.858 272.311C173.696 273.632 174.921 274.753 176.308 274.494C198.341 270.549 220.223 274.006 228.714 275.691C230.728 276.093 231.963 277.999 231.437 279.885L231.275 280.488C230.728 282.47 228.643 283.696 226.528 283.294C217.763 281.628 195.112 278.238 173.868 283.016C172.867 283.236 172.118 284.041 171.945 284.988C171.278 288.723 170.61 292.246 169.972 295.521C169.182 299.619 168.454 303.421 167.958 306.657C167.766 307.892 168.879 308.955 170.184 308.802C175.265 308.17 181.399 307.04 188.139 305.795C213.452 301.132 247.256 294.908 274.056 305.93C275.038 306.341 276.161 305.69 276.212 304.675C278.935 252.078 278.439 251.427 273.024 249.895C268.449 248.593 258.48 249.522 249.391 252.5C241.446 255.114 231.761 258.274 220.628 259.221C218.35 259.423 216.387 257.747 216.306 255.583V255.2C216.225 253.237 217.814 251.59 219.868 251.408C229.959 250.556 238.795 247.664 246.679 245.088C257.65 241.498 272.123 239.822 280.382 243.633C283.864 245.232 284.532 248.421 285.706 252.634C285.797 253.084 286.141 253.266 286.333 253.237C307.273 249.665 316.494 239.554 320.016 225.44L320.006 225.459Z" fill="#97BF0D"/>
<path d="M308.771 197.04C318.265 203.628 322.667 214.783 320.006 225.46C316.484 239.574 307.273 249.675 286.323 253.257C286.131 253.276 285.787 253.103 285.695 252.653C284.521 248.44 283.864 245.261 280.372 243.653C272.113 239.842 257.64 241.527 246.669 245.108C238.795 247.684 229.959 250.575 219.858 251.428C217.794 251.61 216.215 253.257 216.286 255.219V255.602C216.377 257.766 218.35 259.442 220.617 259.241C231.75 258.293 241.426 255.124 249.381 252.519C258.47 249.551 268.439 248.622 273.014 249.915C278.429 251.447 278.924 252.098 276.202 304.695C276.151 305.719 275.028 306.361 274.046 305.949C247.236 294.928 213.442 301.152 188.129 305.815C181.388 307.06 175.255 308.19 170.174 308.822C168.869 308.975 167.755 307.912 167.948 306.677C168.444 303.44 169.172 299.639 169.962 295.541C170.599 292.266 171.277 288.742 171.935 285.008C172.097 284.06 172.846 283.256 173.858 283.036C195.102 278.257 217.743 281.647 226.518 283.313C228.643 283.715 230.728 282.499 231.265 280.508L231.427 279.904C231.943 278.018 230.718 276.113 228.704 275.71C220.213 274.016 198.331 270.569 176.297 274.514C174.911 274.772 173.676 273.652 173.848 272.33C175.893 255.497 176.004 264.354 168.646 246.879C167.765 244.802 165.225 243.882 163.09 244.821C161.571 245.491 160.681 246.918 160.681 248.411C160.681 248.9 160.772 249.407 160.974 249.886C162.634 253.869 165.124 257.364 166.48 261.242C167.29 263.521 165.013 264.986 164.102 264.46C118.213 237.917 113.729 214.084 116.138 202.508C119.913 184.334 140.955 172.7 159.79 170.603C181.196 168.228 198.655 174.989 206.66 191.592C206.66 191.592 211.083 199.214 213.381 201.148C214.14 201.79 213.684 202.977 212.672 203.054C200.203 204.001 187.937 203.427 181.834 202.996C179.617 202.843 177.664 204.375 177.431 206.472L177.38 206.845C177.158 208.856 178.706 210.647 180.842 210.8C190.133 211.48 214.059 212.6 232.621 207.879C234.706 207.832 243.197 204.308 245.556 202.987C281.343 182.869 301.687 192.138 308.761 197.059L308.771 197.04Z" fill="#FFFCF3"/>
<path d="M123.709 324.974C151.268 356.63 170.599 400.063 183.099 410.873C193.432 419.807 208.199 412.664 191.246 396.463C174.293 380.261 148.92 342.458 135.53 321.316C125.875 282.431 94.1452 247.223 85.4614 256.99C73.1644 270.816 86.6152 296.181 96.2909 307.432C106.26 319.018 123.709 324.993 123.709 324.993V324.974Z" fill="#FFFCF3"/>
<path d="M192.562 417.547C188.837 417.547 184.647 415.958 181.115 412.903C175.063 407.666 167.968 395.974 158.98 381.18C149.639 365.793 138.192 346.949 124.873 330.776C123.101 328.622 120.814 326.918 118.193 325.778C112.12 323.145 101.291 317.61 94.0136 309.155C82.8299 296.171 70.0066 270.031 83.2145 255.18C85.2589 252.882 88.2851 252.049 91.7566 252.834C98.7502 254.414 108.325 262.936 117.353 275.633C126.522 288.511 133.668 303.439 137.655 317.946C138.07 319.458 138.688 320.914 139.538 322.245C156.318 348.538 178.797 380.615 193.311 394.49C197.562 398.55 200.264 402.409 201.347 405.932C202.835 410.768 200.871 413.64 199.576 414.914C197.784 416.676 195.294 417.538 192.552 417.538L192.562 417.547ZM89.2769 258.091C88.275 258.091 87.8904 258.522 87.6879 258.751C81.7166 265.464 83.1639 275.288 85.4208 282.354C88.447 291.815 94.1856 300.595 98.5478 305.66C106.705 315.14 120.895 321.01 124.306 322.331C124.883 322.551 125.439 322.848 125.895 323.25C126.168 323.49 126.411 323.739 126.644 324.007C141.451 341.204 153.96 361.81 164.051 378.423C172.441 392.24 179.678 404.171 185.062 408.824C189.384 412.558 193.898 412.539 195.365 411.093C197.045 409.447 195.811 404.764 189.161 398.406C170.053 380.137 142.645 336.598 134.072 323.087C133.921 322.848 133.789 322.609 133.688 322.35L133.668 322.302C133.566 322.063 133.485 321.823 133.425 321.575C129.741 306.972 121.786 291.776 112.515 278.744C104.529 267.522 95.8455 259.47 90.4105 258.244C89.9753 258.148 89.6008 258.1 89.2972 258.1L89.2769 258.091Z" fill="#97BF0D"/>
<path d="M90.7344 268.623C91.5238 282.143 102.353 299.685 111.867 305.143Z" fill="#FFFCF3"/>
<path d="M108.102 306.043C98.7401 299.197 89.7932 283.714 88.0625 271.295C87.8702 269.945 88.9228 268.729 90.36 268.652L91.3012 268.604C92.5967 268.537 93.71 269.437 93.8719 270.653C95.4508 282.45 104.094 296.075 111.604 301.62C112.586 302.347 112.839 303.64 112.191 304.655L111.695 305.421C110.936 306.608 109.256 306.905 108.092 306.062L108.102 306.043Z" fill="#97BF0D"/>
<path d="M287.537 369.93C287.598 370.495 287.426 371.041 287.021 371.51L284.865 374C282.305 372.506 280.119 370.821 278.965 369.853C278.429 369.432 277.659 369.47 277.173 369.93L274.542 372.563C274.026 373.071 274.076 373.875 274.623 374.325C275.838 375.34 278.064 377.073 280.756 378.73L249.857 414.33C249.027 415.278 247.529 415.441 246.497 414.656L241.001 410.51C240.535 410.146 240.232 409.619 240.171 409.055C240.11 408.49 240.282 407.944 240.667 407.494L243.663 404.037C244.948 405.272 246.588 406.728 248.45 408.097C249.047 408.537 249.928 408.403 250.373 407.81L252.549 404.975C252.974 404.411 252.822 403.625 252.245 403.194C250.474 401.864 248.916 400.446 247.762 399.317L277.852 364.645C278.317 364.099 279.005 363.812 279.694 363.812C280.23 363.812 280.766 363.974 281.192 364.319L286.707 368.484C287.173 368.829 287.477 369.356 287.537 369.921V369.93Z" fill="#FFFCF3"/>
<path d="M385.154 272.578C385.003 265.244 381.157 259.096 373.697 254.318C366.157 249.464 358.587 248.114 351.198 250.297C328.912 256.846 309.075 294.812 282.71 358.258C279.289 357.089 275.311 358.018 272.902 360.785L235.718 403.625C234.24 405.339 233.562 407.484 233.795 409.686C234.048 411.869 235.181 413.832 237.023 415.23L242.519 419.396C244.118 420.612 246.062 421.196 248.015 421.196C250.555 421.196 253.106 420.162 254.806 418.179L291.991 375.34C293.489 373.626 294.167 371.481 293.914 369.298C293.833 368.494 293.61 367.718 293.296 366.99C356.34 322.896 385.569 292.849 385.165 272.569L385.154 272.578ZM287.021 371.5L284.865 373.99C282.305 372.496 280.119 370.811 278.965 369.844C278.428 369.422 277.659 369.461 277.173 369.92L274.542 372.553C274.026 373.061 274.076 373.865 274.623 374.315C275.838 375.33 278.064 377.063 280.756 378.72L249.857 414.321C249.027 415.269 247.529 415.431 246.497 414.646L241.001 410.5C240.535 410.136 240.232 409.61 240.171 409.045C240.11 408.48 240.282 407.934 240.667 407.484L243.663 404.027C244.948 405.262 246.588 406.718 248.45 408.087C249.047 408.528 249.928 408.394 250.373 407.8L252.549 404.966C252.974 404.401 252.822 403.616 252.245 403.185C250.474 401.854 248.916 400.437 247.762 399.307L277.852 364.635C278.317 364.089 279.005 363.802 279.694 363.802C280.23 363.802 280.766 363.964 281.192 364.309L286.707 368.474C287.173 368.819 287.477 369.346 287.537 369.911C287.598 370.476 287.426 371.021 287.021 371.491V371.5ZM353.101 256.08C354.771 255.592 356.411 255.352 358.101 255.352C360.196 255.352 362.311 255.735 364.447 256.501C350.49 264.324 320.835 298.757 295.492 340.831C314.986 296.88 336.553 260.935 353.101 256.08ZM370.347 260.37C370.024 267.14 352.373 295.808 298.67 348.845C331.989 289.852 362.828 262.352 370.347 260.37ZM306.109 350.214C345.136 311.377 370.864 279.635 375.793 264.372C377.716 266.862 378.677 269.61 378.738 272.684C379.062 288.875 355.257 314.336 306.099 350.214H306.109Z" fill="#97BF0D"/>
<path d="M268.553 71.6775L246.436 89.9231L251.664 115.71L224.345 103.542L197.035 115.71L202.254 89.9231L180.154 71.6775L210.69 67.9211L224.345 44.4688L238 67.9211L268.553 71.6775Z" fill="#FFFCF3"/>
<path d="M224.345 44.0459L238 67.4982L268.553 71.2547L246.436 89.5002L251.664 115.288L224.345 103.119L197.035 115.288L202.254 89.5002L180.154 71.2547L210.69 67.4982L224.345 44.0459Z" stroke="#97BF0D" stroke-width="3" stroke-miterlimit="10"/>
</svg>
