<svg width="450" height="500" viewBox="0 0 450 500" fill="none" xmlns="http://www.w3.org/2000/svg">
<g clip-path="url(#clip0_640_1301)">
<path d="M224.991 13.0356V486.99C224.991 488.586 223.609 489.878 221.922 489.862C216.218 489.82 210.784 489.664 206.975 489.376C206.384 489.335 205.827 489.121 205.358 488.775C53.2914 377.136 9.73821 207.331 10.7034 32.8354C10.7034 31.6586 11.4598 30.5888 12.6249 30.1691C48.0222 17.3313 134.859 10.575 221.931 10.1553C223.617 10.1553 224.991 11.4391 224.991 13.0356Z" fill="#B4CC25"/>
<path d="M235.677 497.12C235.677 498.708 234.321 499.992 232.643 499.992H224.991C216.827 499.992 209.584 499.77 205.115 499.383L202.897 499.193C202.323 499.144 201.776 498.938 201.315 498.601L199.55 497.309C126.573 443.942 73.0291 373.276 40.3968 287.287C12.4946 213.774 -0.704355 129.884 0.0260233 30.8108L0.0608032 25.9966C0.0608032 24.8362 0.808572 23.7993 1.93892 23.3549L6.6429 21.5198C46.3007 6.05681 145.415 0.271569 224.956 0.0246881L232.634 0C234.312 0 235.677 1.28378 235.677 2.87205V497.12ZM211.053 479.484C211.053 479.484 211.079 479.484 211.097 479.484C212.836 479.566 214.296 478.258 214.296 476.612V23.2397C214.296 21.635 212.905 20.343 211.21 20.3595C127.947 21.24 57.2303 27.6754 23.5199 37.3449C22.2417 37.7152 21.3809 38.8509 21.3809 40.1099C21.72 241.351 83.2631 384.986 209.314 478.867C209.81 479.237 210.418 479.46 211.053 479.484Z" fill="#DB7726"/>
<path d="M243.016 489.383C239.207 489.671 233.747 489.828 228.052 489.869C226.365 489.877 224.982 488.593 224.982 486.997V13.0182C224.982 11.4299 226.339 10.1379 228.017 10.1379C317.375 9.99804 405.725 16.5486 437.531 30.1106C438.601 30.5715 439.279 31.6001 439.279 32.7111C440.27 207.248 396.726 377.11 244.624 488.783C244.155 489.128 243.598 489.342 243.007 489.383H243.016Z" fill="#D2E877"/>
<path d="M224.991 500H217.34C215.662 500 214.305 498.716 214.305 497.128V2.92122C214.305 1.34118 215.662 0.0491699 217.331 0.0491699L224.957 0.0244818C307.707 -0.238858 408.664 5.33242 444.009 21.8076L448.244 23.7827C449.278 24.26 449.93 25.2557 449.939 26.342L449.974 30.8105C450.713 129.876 437.505 213.774 409.612 287.287C376.98 373.284 323.436 443.941 250.459 497.309L248.694 498.601C248.233 498.938 247.685 499.136 247.111 499.193L244.894 499.383C240.425 499.769 233.173 499.992 225 499.992L224.991 500ZM235.677 23.149V476.62C235.677 478.266 237.138 479.574 238.877 479.492C238.895 479.492 238.921 479.492 238.938 479.492C239.573 479.459 240.173 479.245 240.677 478.875C366.833 384.929 428.367 241.153 428.61 39.6736C428.61 38.4474 427.802 37.3282 426.567 36.9332C395.613 27.0744 323.627 20.6391 238.738 20.2687C237.051 20.2687 235.669 21.5525 235.669 23.149H235.677Z" fill="#D56C06"/>
<path d="M350.993 299.134V308.657H348.303C331.121 308.657 298.883 312.557 285.955 327.056C285.505 330.482 282.437 333.508 277.609 335.239C270.92 337.636 261.184 337.28 254.045 331.339C243.837 332.642 207.038 347.022 180.834 362.04C180.456 362.268 180.026 362.514 179.648 362.732L177.633 363.899L176.119 362.259C176.119 362.259 175.864 361.985 175.516 361.584C169.124 354.704 115.029 296.282 98.7773 281.538L98 280.863V270.529L99.1046 269.809C99.708 269.427 100.332 269.026 100.986 268.67C105.763 266 112.401 263.677 120 261.699C120.624 262.282 121.309 262.911 122.015 263.604C114.364 265.554 107.727 267.796 102.93 270.393C102.122 270.839 101.375 271.268 100.669 271.741C102.204 273.127 104.065 274.903 106.182 276.963C125.799 296.1 178.185 352.617 178.185 352.617C178.185 352.617 239.378 326.263 247.079 324.359C247.335 324.313 247.529 324.267 247.754 324.176C247.908 324.158 248.082 324.131 248.235 324.085C248.337 324.067 248.44 324.04 248.511 324.021C248.562 324.021 248.583 324.021 248.634 324.003C248.706 323.985 248.787 323.958 248.89 323.939H248.941C249.115 323.894 249.289 323.848 249.442 323.83C249.749 323.784 250.025 323.693 250.322 323.648C250.393 323.648 250.444 323.629 250.526 323.602C250.802 323.557 251.058 323.538 251.283 323.465C251.355 323.465 251.385 323.465 251.436 323.447H251.59C251.917 323.383 252.265 323.338 252.572 323.292C252.848 323.274 253.124 323.229 253.38 323.201H253.533C253.635 323.183 253.738 323.183 253.809 323.156H253.932C254.137 323.137 254.31 323.137 254.464 323.11C255.691 323.065 256.704 323.128 257.481 323.383C262.759 327.575 267.443 328.605 271.319 327.912C276.699 326.947 280.596 322.673 282.406 318.927C291.458 310.143 308.61 303.891 344.028 300.219C345.44 300.082 346.871 299.945 348.334 299.818C347.853 299.052 347.332 298.314 346.8 297.576C327.03 269.345 293.779 242.517 268.701 233.258C267.32 232.165 266.062 231.153 264.927 230.214C265.183 230.196 265.408 230.123 265.653 230.078L266.41 229.923L267.167 230.169C294.178 239.045 329.413 267.75 349.735 297.284C350.042 297.713 350.339 298.159 350.645 298.56L351.024 299.143L350.993 299.134Z" fill="#D56C06"/>
<path d="M348.304 299.81C346.841 299.946 345.409 300.083 343.998 300.211C308.589 303.883 291.427 310.134 282.376 318.919C280.565 322.665 276.668 326.938 271.289 327.904L270.839 325.216L270.89 325.125L270.961 324.97L271.616 323.585L271.667 323.521L272.424 321.863C275.922 314.509 297.779 299.099 315.38 293.403C322.223 291.207 327.633 290.761 330.671 292.146L340.807 296.802L334.015 288.647C323.45 275.87 298.474 256.469 280.218 242.281C275.993 239.009 272.046 235.92 268.67 233.25C293.749 242.509 326.999 269.327 346.769 297.568C347.301 298.306 347.823 299.044 348.304 299.81Z" fill="#FFFCF3"/>
<path d="M234.193 315.41C233.64 315.301 233.057 315.182 232.536 315.1C232.434 315.1 232.331 315.082 232.26 315.055C231.605 314.945 231.002 314.827 230.378 314.718H230.357C229.733 314.608 229.099 314.49 228.496 314.426C227.872 314.317 227.238 314.198 226.634 314.116H226.563C224.118 313.733 221.756 313.424 219.495 313.178C218.34 313.068 217.184 312.932 216.079 312.84C213.891 312.64 211.773 312.531 209.769 312.458C206.476 312.348 203.479 312.412 200.768 312.658C199.214 312.795 197.751 312.995 196.391 313.241C195.736 313.351 195.082 313.515 194.478 313.67H194.458C193.854 313.806 193.251 313.98 192.699 314.162L190.909 314.763L189.702 313.442C186.429 309.861 182.614 304.858 178.533 299.098C177.807 298.041 177.05 296.966 176.293 295.872C174.412 293.157 172.468 290.295 170.535 287.334C168.193 283.816 165.861 280.208 163.539 276.581C162.956 275.688 162.384 274.767 161.801 273.865C161.627 273.573 161.422 273.282 161.248 272.972C160.87 272.371 160.471 271.76 160.093 271.177C159.714 270.594 159.336 269.992 158.988 269.409C158.784 269.099 158.589 268.808 158.405 268.516L156.748 265.891C156.544 265.554 156.349 265.244 156.124 264.907C155.623 264.078 155.091 263.267 154.59 262.465C154.314 262.018 154.007 261.572 153.731 261.116C153.107 260.132 152.504 259.148 151.87 258.182C151.767 258.027 151.665 257.845 151.563 257.69C151.184 257.107 150.837 256.551 150.509 255.986H150.489C149.865 255.002 149.282 254.063 148.679 253.115C148.177 252.35 147.697 251.612 147.247 250.874C146.766 250.108 146.296 249.397 145.835 248.696C142.593 243.72 140.026 239.956 138.788 238.699L135.27 235.136L140.578 234.753C144.782 234.48 148.627 233.906 152.32 233.404C169.144 231.008 182.451 229.103 207.171 252.405C211.518 238.69 232.526 232.056 249.78 226.615C252.02 225.923 254.208 225.23 256.295 224.556L258.034 224L259.24 225.23C260.345 226.369 262.309 228.073 264.927 230.206C266.062 231.144 267.32 232.156 268.701 233.249C272.076 235.92 276.024 239.009 280.248 242.28C298.505 256.469 323.481 275.87 334.046 288.646L340.837 296.802L330.702 292.145C327.654 290.76 322.253 291.207 315.411 293.403C297.809 299.098 275.953 314.508 272.455 321.862L271.698 323.521L271.647 323.584L270.992 324.97L270.44 324.787L265.111 323.174C265.111 323.174 265.06 323.156 265.009 323.156C264.907 323.111 264.804 323.065 264.682 323.047C263.853 322.773 262.974 322.491 262.114 322.281C255.998 320.468 250.066 318.9 244.41 317.552H244.39C240.923 316.741 237.547 316.03 234.274 315.419C234.274 315.419 234.257 315.413 234.223 315.401L234.193 315.41ZM313.57 288.947C318.05 287.489 321.967 286.732 325.363 286.614C313.539 274.467 292.562 258.173 276.72 245.871C270.46 241.004 264.999 236.776 261 233.477C260.171 232.785 259.394 232.129 258.688 231.527H258.668C257.809 230.789 257.082 230.142 256.458 229.559C254.853 230.078 253.216 230.589 251.549 231.108C248.829 231.955 246.067 232.83 243.326 233.751C242.048 234.179 240.759 234.598 239.501 235.054C239.327 235.118 239.122 235.163 238.949 235.254C237.967 235.591 236.985 235.947 236.034 236.311C235.758 236.402 235.481 236.512 235.205 236.621C234.673 236.803 234.172 237.004 233.692 237.204C233.19 237.405 232.71 237.605 232.209 237.806C231.176 238.207 230.194 238.635 229.212 239.082C228.23 239.528 227.279 239.956 226.368 240.449C226.297 240.467 226.246 240.494 226.164 240.54H226.143C225.315 240.968 224.507 241.387 223.73 241.843C223.3 242.071 222.901 242.317 222.502 242.581C222.298 242.718 222.103 242.827 221.899 242.964C220.845 243.611 219.833 244.312 218.902 245.051C218.176 245.606 217.521 246.171 216.887 246.773C216.662 247.001 216.437 247.201 216.233 247.42C215.834 247.821 215.455 248.249 215.097 248.677C214.842 248.969 214.617 249.261 214.422 249.552C214.167 249.889 213.942 250.227 213.747 250.564C213.492 250.965 213.246 251.393 213.072 251.821C213.001 251.958 212.95 252.095 212.868 252.222C212.541 252.897 212.285 253.607 212.111 254.327C212.06 254.51 212.039 254.683 211.988 254.847C211.835 255.494 211.733 256.195 211.681 256.888C211.681 256.934 211.661 256.979 211.661 257.043C212.868 258.61 214.3 260.333 215.916 262.201C216.949 263.413 218.033 264.67 219.189 265.964C222.983 270.22 227.412 274.95 232.065 279.77C234.08 281.875 236.136 283.98 238.202 286.085C239.716 287.607 241.219 289.156 242.733 290.66C242.733 290.678 242.753 290.705 242.784 290.724C244.901 292.856 246.988 294.961 249.023 296.975C250.383 298.342 251.713 299.663 253.022 300.939C256.264 304.147 259.312 307.127 261.951 309.678C263.004 310.708 263.986 311.674 264.896 312.549C266.758 314.344 268.292 315.839 269.478 316.959C276.75 307.573 297.451 294.168 313.591 288.947H313.57ZM258.207 316.176C258.31 316.194 258.381 316.221 258.484 316.267C253.83 310.936 246.609 302.689 238.795 293.904C238.744 293.886 238.724 293.84 238.693 293.813C232.209 286.504 225.315 278.841 219.097 272.125C219.076 272.106 219.076 272.079 219.045 272.079C214.463 267.103 210.27 262.647 206.895 259.239C206.169 258.501 205.483 257.808 204.829 257.152C204.348 256.706 203.898 256.277 203.469 255.876C203.162 255.585 202.845 255.275 202.538 255.002C202.436 254.892 202.313 254.774 202.211 254.664C202.211 254.664 202.194 254.658 202.159 254.646C201.986 254.464 201.812 254.309 201.628 254.154C179.924 234.279 168.602 235.892 153.107 238.088C150.663 238.444 148.177 238.808 145.539 239.1C147.073 241.25 149.037 244.212 151.471 247.994C151.747 248.395 152.003 248.823 152.279 249.27C152.483 249.58 152.657 249.871 152.862 250.19C153.117 250.573 153.342 250.928 153.588 251.311C153.813 251.694 154.069 252.049 154.314 252.45C154.897 253.343 155.5 254.291 156.104 255.275C156.554 255.995 157.035 256.733 157.515 257.489C157.791 257.918 158.068 258.337 158.344 258.793C158.62 259.221 158.896 259.667 159.172 260.141C159.704 260.952 160.205 261.754 160.727 262.583C161.259 263.395 161.76 264.242 162.281 265.071C166.863 272.307 171.763 279.998 176.518 287.142C177.245 288.236 177.981 289.32 178.707 290.396C180.17 292.546 181.602 294.606 182.982 296.583C184.015 298.059 185.048 299.499 186.071 300.839V300.857C186.675 301.668 187.258 302.452 187.81 303.19C189.518 305.45 191.134 307.473 192.637 309.195L193.998 308.858C194.448 308.767 194.908 308.676 195.378 308.585C196.207 308.43 197.066 308.293 197.966 308.184C198.846 308.074 199.776 307.956 200.738 307.892C201.515 307.828 202.292 307.783 203.1 307.755C203.53 307.737 203.98 307.71 204.461 307.71C205.218 307.664 206.015 307.664 206.823 307.664C220.252 307.664 238.089 310.599 258.187 316.176H258.207Z" fill="#D56C06"/>
<path d="M325.373 286.614C321.977 286.723 318.05 287.488 313.58 288.947C297.43 294.168 276.729 307.573 269.468 316.959C268.281 315.838 266.747 314.335 264.886 312.549C263.975 311.674 263.004 310.708 261.94 309.678C259.301 307.126 256.254 304.147 253.011 300.939C251.733 299.663 250.373 298.342 249.012 296.975C246.977 294.961 244.891 292.856 242.773 290.724C242.753 290.705 242.722 290.678 242.722 290.66C241.209 289.156 239.705 287.616 238.191 286.085C236.156 283.98 234.09 281.848 232.055 279.77C227.401 274.949 222.972 270.22 219.178 265.964C218.022 264.661 216.938 263.413 215.905 262.201C214.299 260.342 212.857 258.619 211.65 257.043C211.65 256.979 211.671 256.933 211.671 256.888C211.722 256.195 211.824 255.503 211.978 254.847C212.029 254.692 212.049 254.509 212.1 254.327C212.274 253.607 212.53 252.896 212.857 252.222C212.929 252.085 212.98 251.949 213.062 251.821C213.236 251.393 213.491 250.974 213.737 250.564C213.941 250.226 214.166 249.889 214.412 249.552C214.616 249.26 214.841 248.969 215.087 248.677C215.435 248.249 215.813 247.83 216.222 247.42C216.427 247.192 216.652 246.991 216.877 246.773C217.501 246.171 218.155 245.606 218.892 245.05C219.822 244.312 220.825 243.62 221.888 242.963C222.093 242.827 222.287 242.717 222.492 242.581C222.891 242.307 223.3 242.061 223.719 241.843C224.496 241.396 225.304 240.968 226.133 240.539H226.153C226.225 240.494 226.276 240.476 226.358 240.448C227.268 239.956 228.219 239.528 229.201 239.081C230.183 238.653 231.165 238.234 232.198 237.806C232.699 237.605 233.18 237.405 233.681 237.204C234.162 237.004 234.663 236.803 235.195 236.621C235.471 236.512 235.747 236.393 236.023 236.311C236.974 235.956 237.956 235.591 238.938 235.254C239.112 235.163 239.316 235.117 239.49 235.054C240.748 234.607 242.027 234.179 243.315 233.75C246.056 232.83 248.828 231.955 251.539 231.108C253.195 230.588 254.832 230.078 256.448 229.559C257.072 230.142 257.808 230.789 258.657 231.527H258.678C259.383 232.128 260.161 232.785 260.989 233.477C264.988 236.767 270.45 241.004 276.709 245.87C292.552 258.173 313.529 274.466 325.352 286.614H325.373Z" fill="#FFFCF3"/>
<path d="M270.838 325.225L271.288 327.913C267.412 328.606 262.738 327.576 257.45 323.384C256.673 323.138 255.66 323.074 254.433 323.111C254.28 323.129 254.106 323.129 253.901 323.156H253.779C253.707 323.175 253.605 323.175 253.502 323.202H253.349C253.093 323.22 252.817 323.266 252.541 323.293C252.234 323.339 251.886 323.384 251.559 323.448H251.406C251.406 323.448 251.334 323.466 251.252 323.466C251.027 323.53 250.772 323.557 250.495 323.603C250.424 323.621 250.373 323.649 250.291 323.649C249.984 323.694 249.708 323.785 249.411 323.831C249.258 323.849 249.084 323.895 248.91 323.94H248.859C248.757 323.958 248.685 323.986 248.603 324.004C248.552 324.022 248.532 324.022 248.481 324.022C248.409 324.04 248.307 324.068 248.204 324.086C248.051 324.132 247.877 324.15 247.724 324.177C247.499 324.268 247.294 324.314 247.049 324.359C239.357 326.264 178.155 352.618 178.155 352.618C178.155 352.618 125.768 296.101 106.151 276.964C104.034 274.904 102.173 273.127 100.639 271.742C101.344 271.268 102.101 270.849 102.899 270.394C107.706 267.796 114.344 265.555 121.984 263.604C135.771 276.964 162.455 310.307 176.365 327.722L181.448 334.064L183.586 332.789C191.512 328.086 233.415 314.436 262.053 322.282C262.912 322.528 263.761 322.774 264.62 323.047C264.743 323.065 264.845 323.111 264.947 323.156C264.998 323.156 265.019 323.156 265.05 323.175L270.654 325.061L270.808 325.216L270.838 325.225Z" fill="#FFFCF3"/>
<path d="M270.972 324.979L270.89 325.134L270.685 325.07L270.409 324.797L270.972 324.979Z" fill="#FFFCF3"/>
<path d="M270.89 325.134L270.838 325.225L270.685 325.07L270.89 325.134Z" fill="#FFFCF3"/>
<path d="M270.409 324.797L270.685 325.07L265.08 323.184L270.409 324.797Z" fill="#FFFCF3"/>
<path d="M258.494 316.258C258.391 316.212 258.32 316.194 258.218 316.167C238.12 310.59 220.293 307.655 206.854 307.655C206.046 307.655 205.248 307.655 204.491 307.701C204.011 307.701 203.561 307.719 203.131 307.746C202.323 307.765 201.546 307.81 200.768 307.883C199.817 307.947 198.886 308.065 197.997 308.175C197.086 308.284 196.237 308.421 195.409 308.576C194.928 308.667 194.478 308.758 194.028 308.849C193.578 308.94 193.118 309.05 192.699 309.159C191.185 307.437 189.579 305.414 187.841 303.172C187.288 302.434 186.705 301.65 186.102 300.839V300.821C185.069 299.472 184.036 298.041 183.013 296.565C181.632 294.597 180.2 292.528 178.738 290.378C178.012 289.302 177.275 288.227 176.549 287.124C171.793 279.98 166.894 272.289 162.312 265.053C161.78 264.224 161.279 263.376 160.757 262.565C160.226 261.736 159.724 260.925 159.223 260.123C158.917 259.677 158.64 259.23 158.364 258.774C158.088 258.319 157.812 257.9 157.536 257.471C157.055 256.706 156.585 255.968 156.124 255.257C155.521 254.273 154.917 253.334 154.334 252.432C154.079 252.031 153.833 251.666 153.608 251.293C153.353 250.91 153.128 250.555 152.903 250.172C152.698 249.862 152.504 249.543 152.299 249.252C152.023 248.805 151.767 248.377 151.491 247.976C149.047 244.185 147.093 241.232 145.559 239.082C148.198 238.79 150.693 238.435 153.128 238.07C168.623 235.874 179.934 234.261 201.648 254.136C201.822 254.291 201.996 254.446 202.18 254.628C202.303 254.737 202.436 254.856 202.558 254.984C202.865 255.257 203.182 255.567 203.489 255.858C203.919 256.259 204.348 256.688 204.798 257.134C205.473 257.781 206.179 258.483 206.915 259.221C210.29 262.629 214.484 267.085 219.066 272.061C219.086 272.061 219.086 272.079 219.117 272.106C225.325 278.832 232.219 286.495 238.713 293.795C238.734 293.813 238.764 293.859 238.816 293.886C246.64 302.671 253.861 310.918 258.504 316.249L258.494 316.258Z" fill="#FFFCF3"/>
<path d="M244.379 317.561C250.035 318.909 255.978 320.477 262.084 322.29C233.436 314.444 191.533 328.095 183.616 332.797L181.479 334.073L176.396 327.73C162.486 310.316 135.802 276.972 122.015 263.613C121.309 262.92 120.634 262.292 120 261.708C118.445 260.323 117.105 259.266 116.021 258.619L111.163 255.639L119.161 253.826C125.676 252.35 135.208 250.199 145.794 248.695C146.244 249.388 146.725 250.108 147.206 250.873C147.656 251.611 148.136 252.35 148.638 253.115C138.829 254.418 129.778 256.341 123.109 257.845C123.938 258.583 124.848 259.412 125.779 260.314L125.799 260.332C126.106 260.642 126.423 260.961 126.75 261.271C127.057 261.608 127.405 261.945 127.732 262.282C128.56 263.13 129.44 264.032 130.371 264.971C130.903 265.554 131.475 266.155 132.058 266.784C133.316 268.133 134.626 269.564 135.986 271.067C137.315 272.571 138.727 274.138 140.138 275.751C140.721 276.38 141.274 277.054 141.846 277.701C142.879 278.886 143.912 280.098 144.986 281.328C149.568 286.686 154.345 292.418 158.998 298.114C161.013 300.556 162.997 302.98 164.93 305.377C165.585 306.188 166.239 306.971 166.863 307.755C167.947 309.122 169.021 310.443 170.106 311.765C170.883 312.749 171.66 313.715 172.417 314.654C173.276 315.711 174.105 316.74 174.902 317.743C175.935 319.019 176.938 320.276 177.899 321.488C178.85 322.673 179.812 323.839 180.691 324.96L182.88 327.676C185.038 326.619 187.984 325.434 191.533 324.204C192.412 323.912 193.322 323.602 194.274 323.283C195.225 322.964 196.207 322.655 197.24 322.345C198.242 322.053 199.306 321.743 200.38 321.424C202.538 320.823 204.829 320.24 207.171 319.656C209.533 319.101 211.978 318.563 214.494 318.062C219.526 317.078 224.803 316.267 230.163 315.756C230.234 315.756 230.337 315.738 230.418 315.738C231.697 315.629 232.935 315.537 234.213 315.446C237.486 316.048 240.851 316.768 244.328 317.579H244.349L244.379 317.561Z" fill="#D56C06"/>
<path d="M232.536 315.091C233.067 315.182 233.64 315.291 234.193 315.401H234.172C233.62 315.291 233.067 315.2 232.536 315.091Z" fill="#FFFCF3"/>
<path d="M234.172 315.41C232.914 315.501 231.707 315.592 230.449 315.72C230.377 315.72 230.275 315.738 230.193 315.738C224.834 316.257 219.557 317.059 214.524 318.043C212.008 318.536 209.574 319.073 207.201 319.638C204.859 320.221 202.578 320.805 200.41 321.406C199.326 321.716 198.273 322.007 197.27 322.326C196.237 322.636 195.255 322.955 194.304 323.265C193.353 323.557 192.443 323.866 191.563 324.185C188.014 325.416 185.079 326.609 182.911 327.657L180.722 324.942C179.842 323.821 178.881 322.654 177.93 321.47C176.978 320.258 175.966 319 174.933 317.724C174.125 316.713 173.296 315.683 172.448 314.635C171.691 313.697 170.913 312.731 170.136 311.746C169.052 310.425 167.978 309.104 166.894 307.737C166.27 306.953 165.615 306.169 164.961 305.358C163.028 302.962 161.033 300.538 159.029 298.096C154.375 292.4 149.599 286.668 145.017 281.31C143.933 280.08 142.9 278.868 141.877 277.683C141.294 277.036 140.742 276.362 140.169 275.733C138.757 274.12 137.377 272.552 136.016 271.049C134.656 269.545 133.347 268.115 132.089 266.766C131.506 266.137 130.933 265.536 130.401 264.952C129.491 264.014 128.611 263.112 127.783 262.264C127.435 261.927 127.108 261.572 126.781 261.253C126.453 260.934 126.126 260.624 125.83 260.314L125.809 260.296C124.878 259.403 123.968 258.573 123.14 257.826C129.808 256.323 138.86 254.4 148.668 253.097C149.272 254.035 149.855 254.983 150.478 255.967C150.826 256.523 151.205 257.088 151.563 257.671C151.665 257.826 151.767 258.008 151.869 258.163C152.493 259.129 153.097 260.114 153.731 261.098C153.987 261.544 154.283 261.991 154.559 262.446C155.06 263.257 155.592 264.059 156.114 264.889C156.339 265.226 156.543 265.536 156.738 265.873L158.395 268.497C158.569 268.807 158.773 269.099 158.947 269.39C159.325 269.974 159.704 270.557 160.082 271.158C160.461 271.76 160.839 272.37 161.218 272.953C161.422 273.245 161.596 273.555 161.8 273.846C162.383 274.74 162.956 275.66 163.539 276.562C165.851 280.189 168.193 283.798 170.535 287.315C172.468 290.277 174.411 293.138 176.293 295.854C177.05 296.947 177.807 298.032 178.533 299.08C182.604 304.839 186.429 309.833 189.702 313.423L190.909 314.745L192.719 314.161C193.271 313.979 193.854 313.824 194.458 313.642H194.478C195.082 313.487 195.736 313.332 196.391 313.214C197.751 312.968 199.203 312.767 200.768 312.63C203.489 312.384 206.475 312.321 209.769 312.43C211.783 312.494 213.87 312.63 216.079 312.813C217.184 312.904 218.339 313.04 219.495 313.15C221.755 313.423 224.149 313.733 226.563 314.088H226.634C227.238 314.18 227.861 314.289 228.496 314.398C229.099 314.462 229.723 314.581 230.357 314.69H230.377C231.001 314.799 231.605 314.918 232.259 315.027C232.331 315.045 232.433 315.073 232.536 315.073C233.067 315.182 233.62 315.273 234.172 315.382V315.41Z" fill="#FFFCF3"/>
<path d="M219.485 313.168C221.745 313.414 224.108 313.724 226.552 314.107C224.138 313.751 221.745 313.432 219.485 313.168Z" fill="#FFFCF3"/>
<path d="M209.748 312.448C211.763 312.512 213.87 312.631 216.059 312.831C213.849 312.649 211.753 312.521 209.748 312.448Z" fill="#FFFCF3"/>
<path d="M203.489 255.867C203.918 256.268 204.368 256.696 204.849 257.143H204.798C204.348 256.696 203.918 256.268 203.489 255.867Z" fill="#97BF0D"/>
<path d="M202.231 254.656C202.333 254.765 202.456 254.884 202.558 254.993C202.435 254.856 202.302 254.747 202.18 254.638C202.18 254.638 202.197 254.644 202.231 254.656Z" fill="#97BF0D"/>
<path d="M194.427 313.66C193.824 313.842 193.241 313.997 192.688 314.18L190.878 314.763L192.668 314.161C193.22 313.979 193.824 313.806 194.427 313.669V313.66Z" fill="#FFFCF3"/>
<path d="M194.028 308.84L192.668 309.177C191.154 307.455 189.548 305.432 187.84 303.172C189.579 305.414 191.185 307.428 192.699 309.159C193.128 309.05 193.578 308.931 194.028 308.849V308.84Z" fill="#FFFCF3"/>
<path d="M161.228 272.963C161.402 273.273 161.606 273.564 161.78 273.856C161.576 273.564 161.402 273.254 161.197 272.963H161.218H161.228Z" fill="#FFFCF3"/>
<path d="M160.072 271.168C160.451 271.751 160.85 272.353 161.228 272.963H161.208C160.829 272.38 160.451 271.779 160.072 271.168Z" fill="#FFFCF3"/>
<path d="M158.968 269.4C159.315 269.984 159.694 270.585 160.072 271.168C159.694 270.567 159.315 269.984 158.937 269.4H158.957H158.968Z" fill="#FFFCF3"/>
<path d="M158.395 268.507C158.569 268.798 158.773 269.09 158.978 269.4H158.958C158.784 269.108 158.579 268.817 158.405 268.507H158.395Z" fill="#FFFCF3"/>
<path d="M154.57 262.456C155.071 263.267 155.603 264.069 156.104 264.898C155.572 264.069 155.05 263.258 154.549 262.456C154.273 262.01 153.966 261.563 153.721 261.107C153.997 261.554 154.304 262 154.58 262.456H154.57Z" fill="#FFFCF3"/>
<path d="M150.489 255.977C150.816 256.532 151.164 257.097 151.542 257.681C151.194 257.097 150.816 256.542 150.458 255.977H150.478H150.489Z" fill="#FFFCF3"/>
<path d="M127.783 262.273H127.763C127.435 261.936 127.088 261.599 126.781 261.262C127.108 261.572 127.435 261.936 127.783 262.273Z" fill="#97BF0D"/>
<path d="M378.83 96.1999L359.19 115.33L363.84 142.35L339.58 129.6L315.31 142.35L319.94 115.33L300.3 96.1999L327.43 92.2499L339.58 67.6699L351.7 92.2499L378.83 96.1999Z" fill="#FFFCF3"/>
<path d="M277.88 79.52L252.03 104.68L258.14 140.24L226.21 123.46L194.29 140.24L200.39 104.68L174.56 79.52L210.25 74.34L226.21 42L242.17 74.34L277.88 79.52Z" fill="#FFFCF3"/>
<path d="M154.53 96.1999L134.89 115.33L139.54 142.35L115.25 129.6L90.99 142.35L95.64 115.33L76 96.1999L103.13 92.2499L115.25 67.6699L127.39 92.2499L154.53 96.1999Z" fill="#FFFCF3"/>
<path d="M226.21 42L242.17 74.34L277.88 79.52L252.03 104.68L258.14 140.24L226.21 123.46L194.29 140.24L200.39 104.68L174.56 79.52L210.25 74.34L226.21 42Z" stroke="#97BF0D" stroke-width="3" stroke-miterlimit="10"/>
<path d="M339.58 67.6699L351.7 92.2499L378.83 96.1999L359.19 115.33L363.84 142.35L339.58 129.6L315.31 142.35L319.94 115.33L300.3 96.1999L327.43 92.2499L339.58 67.6699Z" stroke="#97BF0D" stroke-width="3" stroke-miterlimit="10"/>
<path d="M115.25 67.6699L127.39 92.2499L154.53 96.1999L134.89 115.33L139.54 142.35L115.25 129.6L90.99 142.35L95.64 115.33L76 96.1999L103.13 92.2499L115.25 67.6699Z" stroke="#97BF0D" stroke-width="3" stroke-miterlimit="10"/>
</g>
<defs>
<clipPath id="clip0_640_1301">
<rect width="450" height="500" fill="white"/>
</clipPath>
</defs>
</svg>
