<svg width="630" height="509" viewBox="0 0 630 509" fill="none" xmlns="http://www.w3.org/2000/svg">
<g clip-path="url(#clip0_648_1037)">
<path d="M119.592 249.048C118.679 251.635 116.103 252.891 113.829 251.846L39.9596 217.729C37.7 216.667 36.6033 213.726 37.516 211.113C38.2078 209.15 39.8786 207.944 41.6231 207.944C42.1825 207.944 42.7345 208.054 43.2792 208.315L117.148 242.449C119.408 243.494 120.505 246.443 119.592 249.048Z" fill="#97BF0D"/>
<path d="M129.014 222.347C128.086 224.951 125.517 226.207 123.236 225.162L49.3814 191.029C47.107 189.984 46.0103 187.025 46.923 184.43C47.6149 182.449 49.271 181.261 51.0154 181.261C51.5748 181.261 52.1415 181.37 52.6862 181.632L126.555 215.748C128.83 216.793 129.926 219.751 129.014 222.347Z" fill="#97BF0D"/>
<path d="M30.5602 244.412C28.3006 243.367 27.2039 240.409 28.1165 237.813C28.8084 235.832 30.4792 234.627 32.231 234.627C32.7757 234.627 33.3424 234.736 33.8724 234.998L107.742 269.131C110.001 270.176 111.098 273.134 110.185 275.73C109.272 278.334 106.689 279.59 104.422 278.545L30.5528 244.412H30.5602Z" fill="#97BF0D"/>
<path d="M113.829 251.846C116.103 252.891 118.679 251.635 119.592 249.047C120.505 246.443 119.408 243.493 117.148 242.448L43.2793 208.315C42.7347 208.054 42.1826 207.944 41.6233 207.944C39.8788 207.944 38.208 209.149 37.5161 211.113C36.6034 213.717 37.7002 216.667 39.9598 217.729L113.829 251.846ZM123.228 225.163C125.503 226.208 128.079 224.952 129.006 222.348C129.919 219.76 128.822 216.794 126.548 215.749L52.6786 181.632C52.1339 181.371 51.5672 181.261 51.0078 181.261C49.2634 181.261 47.6073 182.45 46.9154 184.43C46.0027 187.017 47.0994 189.984 49.3738 191.029L123.228 225.163ZM107.742 269.131L33.8727 234.998C33.3354 234.737 32.776 234.627 32.2314 234.627C30.4722 234.627 28.8014 235.832 28.1169 237.813C27.2042 240.4 28.3009 243.367 30.5605 244.412L104.43 278.545C106.689 279.591 109.28 278.335 110.193 275.73C111.106 273.143 110.009 270.176 107.749 269.131H107.742ZM146.62 193.718C156.946 198.48 161.937 211.922 157.778 223.747L131.06 299.548C126.901 311.364 115.146 317.07 104.834 312.308L16.6567 271.576C6.33742 266.797 1.35442 253.354 5.51306 241.547L32.2314 165.737C36.39 153.921 48.1299 148.215 58.4565 152.977L146.62 193.726V193.718Z" fill="#FFFCF3"/>
<path d="M468.512 397.279C480.797 402.943 470.272 426.297 459.952 421.535C449.633 416.773 141.82 274.559 141.82 274.559L150.38 250.295C150.38 250.295 456.22 391.607 468.512 397.287V397.279Z" fill="#FFFCF3"/>
<path d="M157.778 223.747L131.06 299.548C126.901 311.364 115.146 317.07 104.834 312.308L16.6567 271.576C6.33742 266.797 1.35442 253.354 5.51306 241.547L32.2314 165.737C36.39 153.921 48.1299 148.215 58.4565 152.977L146.62 193.726C156.946 198.488 161.937 211.931 157.778 223.755V223.747Z" stroke="#97BF0D" stroke-width="11" stroke-miterlimit="10"/>
<path d="M110.193 275.73C109.28 278.334 106.696 279.59 104.429 278.545L30.5602 244.412C28.3006 243.367 27.2039 240.409 28.1165 237.813C28.8084 235.832 30.4792 234.627 32.231 234.627C32.7757 234.627 33.3424 234.736 33.8724 234.998L107.742 269.131C110.001 270.176 111.098 273.134 110.185 275.73H110.193Z" stroke="#97BF0D" stroke-width="3" stroke-miterlimit="10"/>
<path d="M119.592 249.048C118.679 251.635 116.103 252.891 113.829 251.846L39.9596 217.729C37.7 216.667 36.6033 213.726 37.516 211.113C38.2078 209.15 39.8786 207.944 41.6231 207.944C42.1825 207.944 42.7345 208.054 43.2792 208.315L117.148 242.449C119.408 243.494 120.505 246.443 119.592 249.048Z" stroke="#97BF0D" stroke-width="3" stroke-miterlimit="10"/>
<path d="M129.014 222.347C128.086 224.951 125.517 226.207 123.236 225.162L49.3814 191.029C47.107 189.984 46.0103 187.025 46.923 184.43C47.6149 182.449 49.271 181.261 51.0154 181.261C51.5748 181.261 52.1415 181.37 52.6862 181.632L126.555 215.748C128.83 216.793 129.926 219.751 129.014 222.347Z" stroke="#97BF0D" stroke-width="3" stroke-miterlimit="10"/>
<path d="M141.813 274.559C141.813 274.559 449.633 416.773 459.945 421.534C470.265 426.296 480.79 402.951 468.506 397.279C456.206 391.598 150.374 250.286 150.374 250.286L141.813 274.55V274.559Z" stroke="#97BF0D" stroke-width="10" stroke-miterlimit="10"/>
<path d="M596.871 234.627C596.326 234.627 595.76 234.736 595.215 234.998L521.361 269.131C519.086 270.176 517.989 273.134 518.902 275.73C519.815 278.334 522.398 279.59 524.665 278.545L598.535 244.412C600.809 243.367 601.906 240.408 600.978 237.813C600.286 235.832 598.63 234.627 596.871 234.627ZM576.409 181.632L502.54 215.748C500.28 216.793 499.184 219.751 500.096 222.347C501.009 224.952 503.593 226.207 505.86 225.162L579.729 191.029C581.988 189.984 583.085 187.026 582.172 184.43C581.48 182.449 579.824 181.261 578.08 181.261C577.521 181.261 576.954 181.37 576.409 181.632ZM511.939 242.448C509.68 243.493 508.583 246.443 509.496 249.047C510.408 251.635 512.992 252.89 515.259 251.845L589.128 217.729C591.388 216.667 592.484 213.725 591.572 211.113C590.88 209.149 589.224 207.944 587.464 207.944C586.92 207.944 586.353 208.053 585.808 208.315L511.939 242.448ZM624.995 243.443C628.778 254.205 624.237 266.459 614.83 270.8L523.326 313.075C513.927 317.423 503.239 312.206 499.449 301.452L471.383 221.825C467.585 211.062 472.141 198.808 481.548 194.484L573.053 152.193C582.452 147.861 593.139 153.061 596.93 163.832L624.995 243.443Z" fill="#FFFCF3"/>
<path d="M598.527 244.412L524.658 278.545C522.398 279.59 519.807 278.334 518.895 275.73C517.982 273.143 519.079 270.176 521.353 269.131L595.207 234.998C595.752 234.736 596.319 234.627 596.864 234.627C598.623 234.627 600.279 235.832 600.971 237.813C601.898 240.4 600.801 243.367 598.527 244.412Z" fill="#97BF0D"/>
<path d="M589.12 217.728L515.251 251.845C512.991 252.89 510.4 251.634 509.488 249.047C508.575 246.442 509.672 243.493 511.931 242.448L585.8 208.314C586.345 208.053 586.912 207.943 587.457 207.943C589.216 207.943 590.872 209.149 591.564 211.112C592.476 213.717 591.38 216.666 589.12 217.728Z" fill="#97BF0D"/>
<path d="M505.851 225.171C503.592 226.216 501.001 224.96 500.088 222.356C499.176 219.769 500.272 216.802 502.532 215.757L576.401 181.64C576.946 181.379 577.512 181.27 578.072 181.27C579.816 181.27 581.472 182.458 582.164 184.438C583.077 187.026 581.98 189.992 579.721 191.038L505.851 225.171Z" fill="#97BF0D"/>
<path d="M479.457 250.286L488.003 274.55C488.003 274.55 180.183 416.764 169.864 421.534C159.544 426.296 149.034 402.951 161.318 397.279C173.603 391.598 479.45 250.286 479.45 250.286H479.457Z" fill="#FFFCF3"/>
<path d="M471.375 221.833L499.441 301.46C503.239 312.215 513.919 317.423 523.318 313.083L614.823 270.808C624.222 266.459 628.763 254.213 624.987 243.451L596.922 163.84C593.124 153.077 582.444 147.877 573.045 152.201L481.54 194.492C472.141 198.824 467.585 211.07 471.375 221.833Z" stroke="#97BF0D" stroke-width="10" stroke-miterlimit="10"/>
<path d="M518.895 275.73C519.807 278.334 522.391 279.59 524.658 278.545L598.527 244.412C600.801 243.367 601.898 240.409 600.971 237.813C600.279 235.832 598.623 234.627 596.864 234.627C596.319 234.627 595.752 234.736 595.207 234.998L521.353 269.131C519.079 270.176 517.982 273.134 518.895 275.73Z" stroke="#97BF0D" stroke-width="3" stroke-miterlimit="10"/>
<path d="M509.488 249.047C510.4 251.634 512.984 252.89 515.251 251.845L589.12 217.728C591.38 216.666 592.476 213.725 591.564 211.112C590.872 209.149 589.216 207.943 587.457 207.943C586.912 207.943 586.345 208.053 585.8 208.314L511.931 242.448C509.672 243.493 508.575 246.442 509.488 249.047Z" stroke="#97BF0D" stroke-width="3" stroke-miterlimit="10"/>
<path d="M500.089 222.347C501.002 224.951 503.585 226.207 505.852 225.162L579.722 191.029C581.981 189.984 583.078 187.025 582.165 184.43C581.473 182.449 579.817 181.261 578.073 181.261C577.513 181.261 576.947 181.37 576.402 181.632L502.533 215.748C500.273 216.793 499.177 219.751 500.089 222.347Z" stroke="#97BF0D" stroke-width="3" stroke-miterlimit="10"/>
<path d="M488.003 274.559C488.003 274.559 180.183 416.764 169.864 421.534C159.544 426.296 149.034 402.951 161.318 397.279C173.603 391.598 479.45 250.286 479.45 250.286L487.996 274.55L488.003 274.559Z" stroke="#97BF0D" stroke-width="10" stroke-miterlimit="10"/>
<path d="M320.789 111.409C320.73 111.393 320.664 111.393 320.605 111.393L315.563 111.409C313.863 111.409 312.133 111.426 310.404 111.443C259.079 111.907 197.281 116.61 172.065 128.518L168.988 129.968C168.244 130.322 167.751 131.156 167.751 132.075L167.722 135.893C167.243 214.686 175.914 281.385 194.256 339.85C215.704 408.243 250.895 464.424 298.862 506.876L300.025 507.887C300.32 508.157 300.688 508.326 301.063 508.351L302.528 508.511C304.397 508.705 307.025 508.848 310.072 508.916C311.787 508.966 313.657 509 315.585 509H320.62C320.789 509 320.944 508.983 321.098 508.916C321.967 508.671 322.614 507.769 322.614 506.707V113.685C322.614 112.48 321.812 111.511 320.789 111.418V111.409ZM313.576 500.934C311.831 500.917 310.131 500.884 308.556 500.842C306.745 500.774 305.082 500.698 303.75 500.572C303.36 500.521 302.992 500.361 302.682 500.091C202.728 411.311 174.096 276.269 174.729 137.502C174.744 136.567 175.237 135.716 175.995 135.395C198.591 125.484 253.044 120.141 308.556 119.526C310.227 119.509 311.898 119.492 313.576 119.475C314.687 119.458 315.571 120.47 315.585 121.742V498.65C315.585 499.923 314.687 500.951 313.576 500.934Z" fill="#9BBA15"/>
<path d="M183.172 141.085C205.319 133.39 251.8 128.274 306.54 127.583C307.651 127.566 308.564 128.595 308.564 129.867V119.518C253.052 120.133 198.599 125.476 176.003 135.387C175.245 135.708 174.751 136.559 174.737 137.494C174.104 276.261 202.736 411.295 302.69 500.083C302.999 500.353 303.367 500.522 303.758 500.564C305.09 500.69 306.753 500.775 308.564 500.834V490.408C308.564 491.714 307.592 492.76 306.459 492.692C306.459 492.692 306.444 492.692 306.429 492.675C306.025 492.658 305.627 492.481 305.288 492.195C222.44 417.54 181.987 303.315 181.766 143.285C181.766 142.29 182.325 141.371 183.172 141.076V141.085Z" fill="#DB7726"/>
<path d="M308.563 129.876V490.417C308.563 491.723 307.592 492.768 306.458 492.701C306.458 492.701 306.444 492.701 306.429 492.684C306.024 492.667 305.627 492.49 305.288 492.203C222.439 417.548 181.986 303.324 181.766 143.293C181.766 142.298 182.325 141.38 183.171 141.085C205.319 133.39 251.8 128.274 306.539 127.583C307.651 127.566 308.563 128.595 308.563 129.867V129.876Z" fill="#EFAD43"/>
<path d="M463.456 132.336C463.441 131.467 463.007 130.675 462.33 130.304L459.548 128.728C437.062 116.044 374.137 111.493 320.789 111.409C319.03 111.392 317.293 111.409 315.563 111.409L310.558 111.426C310.499 111.426 310.462 111.426 310.404 111.443C309.366 111.527 308.563 112.521 308.563 113.71V119.517C310.234 119.5 311.905 119.483 313.583 119.466C314.695 119.449 315.578 120.461 315.593 121.733C315.593 120.461 316.491 119.432 317.587 119.432C319.258 119.432 320.944 119.432 322.622 119.449C379.614 119.626 435.001 124.843 455.308 135.319C456.007 135.69 456.449 136.507 456.464 137.392C457.111 276.176 428.494 411.26 328.51 500.057C328.201 500.327 327.833 500.504 327.443 500.538C326.096 500.664 324.447 500.748 322.622 500.824C321.047 500.875 319.346 500.908 317.602 500.917C316.505 500.934 315.593 499.905 315.593 498.633C315.593 499.905 314.695 500.934 313.583 500.917C311.839 500.9 310.139 500.866 308.563 500.824V506.698C308.563 507.76 309.211 508.662 310.08 508.907C310.234 508.974 310.389 508.991 310.558 508.991H315.593C317.536 508.991 319.391 508.957 321.106 508.907C324.168 508.839 326.795 508.696 328.679 508.502L330.129 508.342C330.512 508.308 330.873 508.131 331.167 507.878L332.33 506.85C380.298 464.415 415.488 408.217 436.936 339.841C455.279 281.376 463.964 214.652 463.471 135.884L463.456 132.327V132.336Z" fill="#97BF0D"/>
<path d="M308.563 119.525C310.234 119.509 311.905 119.492 313.583 119.475C314.695 119.458 315.578 120.469 315.593 121.742V498.65C315.593 499.923 314.695 500.951 313.583 500.934C311.839 500.917 310.139 500.884 308.563 500.841V119.525Z" fill="#DB7726"/>
<path d="M456.456 137.4C456.441 136.516 456.007 135.698 455.3 135.327C434.993 124.851 379.606 119.634 322.614 119.457C320.943 119.44 319.258 119.44 317.58 119.44C316.483 119.44 315.585 120.469 315.585 121.741V498.649C315.585 499.922 316.498 500.95 317.594 500.933C319.339 500.917 321.039 500.883 322.614 500.841C324.44 500.756 326.088 500.681 327.435 500.554C327.825 500.52 328.193 500.343 328.502 500.074C428.486 411.276 457.104 276.193 456.456 137.409V137.4ZM325.904 492.185C325.58 492.489 325.176 492.666 324.763 492.682H324.719C323.578 492.75 322.614 491.713 322.614 490.398V129.79C322.614 128.517 323.527 127.506 324.638 127.506C380.438 127.793 427.743 132.917 448.094 140.746C448.911 141.067 449.441 141.952 449.427 142.921C449.272 303.145 408.827 417.479 325.904 492.185Z" fill="#D56C06"/>
<path d="M448.095 140.756C448.912 141.076 449.442 141.961 449.427 142.93C449.272 303.155 408.827 417.489 325.904 492.194C325.581 492.498 325.176 492.675 324.764 492.692H324.719C323.578 492.759 322.614 491.722 322.614 490.408V129.791C322.614 128.518 323.527 127.507 324.638 127.507C380.438 127.793 427.743 132.918 448.095 140.747V140.756Z" fill="#F9D075"/>
<path d="M349.171 38.1196L331.984 57.3186L336.047 84.4061L314.797 71.6124L293.548 84.4061L297.604 57.3186L280.417 38.1196L304.169 34.1753L314.797 9.52344L325.419 34.1753L349.171 38.1196Z" fill="#FFFCF3"/>
<path d="M263.12 49.5905L252.536 65.0137L257.637 83.707L241.569 76.9646L227.599 88.3003L228.247 68.7136L214.52 57.0156L230.977 51.6554L236.468 33.0801L246 49.3714L263.12 49.5905Z" fill="#FFFCF3"/>
<path d="M314.797 9.52344L325.419 34.1753L349.171 38.1196L331.984 57.3186L336.047 84.4061L314.797 71.6124L293.548 84.4061L297.604 57.3186L280.417 38.1196L304.169 34.1753L314.797 9.52344Z" stroke="#97BF0D" stroke-width="10" stroke-miterlimit="10"/>
<path d="M236.468 33.0801L246 49.3714L263.12 49.5905L252.536 65.0137L257.637 83.707L241.569 76.9646L227.599 88.3003L228.247 68.7136L214.52 57.0156L230.977 51.6554L236.468 33.0801Z" stroke="#97BF0D" stroke-width="7" stroke-miterlimit="10"/>
<path d="M365.673 334.651C365.673 370.301 344.482 401.518 313.347 401.518C282.213 401.518 258.998 377.254 258.998 341.604C258.998 305.953 282.213 272.427 313.347 272.427C344.482 272.427 365.673 314.449 365.673 334.659V334.651Z" fill="#FFFCF3" stroke="#97BF0D" stroke-width="7" stroke-miterlimit="10"/>
<path d="M391.773 188.189C402.158 196.92 406.987 211.745 404.05 225.955C400.458 243.384 388.35 256.279 368.183 260.644C367.999 260.678 367.918 260.863 367.918 261.074C367.77 268.631 367.282 286.622 366.453 315.047L366.261 318.983C366.203 320.281 364.944 321.031 363.987 320.348L361.05 318.267C339.668 303.121 308.607 310.041 285.923 315.089C276.832 317.112 268.972 318.873 263.253 318.873H262.141C260.794 318.873 259.712 317.626 259.712 316.092V314.819C259.712 309.923 260.765 303.357 262.09 295.047C264.231 281.613 266.013 274.618 265.91 274.559C243.968 260.324 210.353 232.562 216.146 198.791C219.627 178.522 237.469 162.298 259.535 159.332C280.616 156.491 298.722 167.195 306.819 187.279C306.819 187.287 306.826 187.304 306.841 187.312C311.5 196.111 313.944 198.758 317.646 198.943C320.914 199.103 327.627 195.479 329.975 193.869C364.179 170.617 384.574 182.138 391.765 188.181L391.773 188.189ZM397.161 224.092C399.435 213.052 395.674 201.53 387.57 194.721C381.52 189.639 364.156 180.056 333.596 200.848C331.587 202.213 324.329 205.862 322.548 205.913C306.701 210.801 286.269 209.638 278.334 208.939C276.516 208.779 275.191 206.924 275.382 204.851L275.419 204.472C275.618 202.306 277.289 200.721 279.18 200.882C284.392 201.32 294.858 201.927 305.509 200.94C306.377 200.856 306.76 199.634 306.112 198.968C304.147 196.962 300.378 189.091 300.378 189.091C293.541 171.923 278.628 164.945 260.352 167.397C244.27 169.563 226.303 181.581 223.079 200.367C221.026 212.335 224.846 236.962 264.033 264.395C264.813 264.943 266.741 263.426 266.064 261.074C264.901 257.071 262.774 253.455 261.361 249.342C261.192 248.845 261.111 248.323 261.111 247.817C261.111 246.275 261.869 244.808 263.164 244.109C264.982 243.148 267.161 244.1 267.904 246.241C274.183 264.294 274.094 255.149 272.343 272.545C272.203 273.91 273.255 275.073 274.433 274.803C293.246 270.724 311.927 274.298 319.177 276.042C320.899 276.455 321.952 278.427 321.503 280.374L321.363 280.998C320.899 283.046 319.118 284.31 317.307 283.897C309.822 282.169 290.486 278.672 272.35 283.611C271.489 283.838 270.856 284.664 270.709 285.65C270.142 289.51 269.568 293.151 269.023 296.539C268.346 300.778 267.728 304.706 267.301 308.052C267.139 309.324 268.088 310.429 269.2 310.26C273.542 309.611 278.776 308.44 284.531 307.158C306.149 302.338 335.002 295.915 357.893 307.293C358.732 307.723 359.696 307.049 359.733 305.995C362.059 251.643 361.632 250.969 357.009 249.385C353.108 248.053 344.585 249.005 336.827 252.073C330.041 254.77 321.775 258.04 312.265 259.026C310.322 259.237 308.644 257.501 308.571 255.259V254.863C308.497 252.84 309.859 251.138 311.618 250.952C320.237 250.076 327.781 247.084 334.509 244.421C343.871 240.712 356.222 238.993 363.288 242.912C366.262 244.572 366.821 247.868 367.822 252.208C367.91 252.671 368.205 252.865 368.367 252.848C386.252 249.157 394.121 238.698 397.124 224.117L397.161 224.092Z" fill="#97BF0D"/>
<path d="M387.578 194.721C395.681 201.531 399.443 213.052 397.168 224.093C394.165 238.673 386.297 249.132 368.411 252.824C368.249 252.849 367.955 252.647 367.866 252.183C366.865 247.843 366.306 244.539 363.332 242.887C356.274 238.96 343.923 240.687 334.553 244.396C327.826 247.059 320.281 250.051 311.662 250.927C309.903 251.113 308.549 252.815 308.608 254.838V255.234C308.689 257.467 310.367 259.204 312.31 259.001C321.82 258.015 330.078 254.754 336.872 252.048C344.63 248.98 353.146 248.028 357.054 249.36C361.676 250.944 362.103 251.618 359.777 305.97C359.741 307.024 358.776 307.698 357.937 307.268C335.046 295.882 306.194 302.313 284.576 307.134C278.82 308.423 273.58 309.586 269.244 310.235C268.133 310.395 267.183 309.3 267.345 308.027C267.772 304.681 268.39 300.754 269.068 296.514C269.612 293.135 270.194 289.485 270.753 285.625C270.893 284.639 271.533 283.822 272.395 283.586C290.531 278.655 309.866 282.153 317.352 283.872C319.163 284.285 320.944 283.029 321.408 280.973L321.547 280.349C321.989 278.403 320.944 276.439 319.221 276.017C311.971 274.264 293.291 270.699 274.478 274.778C273.292 275.048 272.24 273.885 272.387 272.52C274.139 255.124 274.227 264.277 267.949 246.216C267.198 244.075 265.027 243.123 263.209 244.084C261.913 244.775 261.155 246.25 261.155 247.792C261.155 248.298 261.236 248.82 261.405 249.318C262.819 253.43 264.946 257.046 266.109 261.049C266.786 263.401 264.857 264.918 264.077 264.37C224.89 236.945 221.07 212.31 223.124 200.343C226.348 181.557 244.315 169.538 260.397 167.372C278.673 164.92 293.585 171.898 300.423 189.066C300.423 189.066 304.199 196.938 306.157 198.943C306.804 199.601 306.422 200.831 305.553 200.916C294.903 201.902 284.436 201.295 279.225 200.857C277.333 200.696 275.663 202.281 275.464 204.447L275.427 204.826C275.236 206.899 276.561 208.754 278.379 208.914C286.306 209.622 306.738 210.776 322.593 205.888C324.374 205.846 331.624 202.197 333.641 200.823C364.194 180.031 381.564 189.614 387.614 194.696L387.578 194.721Z" fill="#FFFCF3"/>
<path d="M325.772 371.447C323.004 371.447 320.472 370.444 318.095 369.5C315.548 368.489 313.141 367.536 310.212 367.536C307.282 367.536 304.264 368.396 301.379 369.239C296.455 370.663 290.994 369.93 285.657 366.896C283.722 365.8 283.192 362.926 284.612 361.064L284.995 360.558C285.959 359.294 287.549 358.931 288.866 359.665C291.685 361.232 294.777 362.783 299.642 361.376C302.792 360.465 306.362 359.429 310.212 359.429C314.333 359.429 317.705 360.769 320.413 361.839C323.983 363.255 326.125 364.106 328.885 362.294C330.254 361.392 331.976 361.645 333.022 362.994L333.397 363.483C334.729 365.202 334.427 367.916 332.712 369.112C330.225 370.84 327.921 371.447 325.764 371.447H325.772Z" fill="#97BF0D"/>
<path d="M345.292 337.44C344.084 338.434 342.436 338.375 341.317 337.254C339.197 335.122 336.253 333.597 333.265 333.192C331.012 332.889 328.915 333.217 327.17 334.136C325.86 334.827 324.307 334.448 323.372 333.192L322.938 332.611C321.591 330.815 322.025 327.984 323.88 326.939C326.883 325.261 330.394 324.621 334.104 325.135C338.579 325.75 342.907 328.009 346.116 331.287C347.639 332.847 347.47 335.636 345.814 337.002L345.292 337.431V337.44Z" fill="#97BF0D"/>
<path d="M294.601 333.504C293.593 334.144 292.386 334.001 291.429 333.268C290.052 332.206 287.918 331.582 285.643 331.658C283.671 331.725 281.882 332.307 280.741 333.183C279.836 333.883 278.695 334.018 277.709 333.47L276.612 332.863C274.625 331.759 274.33 328.641 276.075 327.081C278.423 324.966 281.72 323.685 285.445 323.567C289.625 323.441 293.394 324.739 296.066 327.124C297.759 328.632 297.56 331.633 295.69 332.829L294.608 333.52L294.601 333.504Z" fill="#97BF0D"/>
<path d="M181.154 63.4463L187.808 72.3968L198.01 71.1916L192.637 81.1956L196.795 91.9413L186.822 89.1854L179.182 97.0234L178.387 85.3085L169.518 79.4173L178.998 74.9336L181.154 63.4463Z" fill="#FFFCF3" stroke="#97BF0D" stroke-width="5" stroke-miterlimit="10"/>
<path d="M399.575 70.1382L400.208 89.7248L386.253 78.3892L370.193 85.1484L375.279 66.4383L364.709 51.0151L381.829 50.7959L391.354 34.5215L396.837 53.0799L413.295 58.4401L399.575 70.1382Z" fill="#FFFCF3" stroke="#97BF0D" stroke-width="7" stroke-miterlimit="10"/>
<path d="M458.296 80.8327L449.427 86.7407L448.639 98.4557L440.992 90.6092L431.033 93.3736L435.177 82.6195L429.812 72.6154L440.013 73.8206L446.66 64.8701L448.823 76.3659L458.296 80.8327Z" fill="#FFFCF3" stroke="#97BF0D" stroke-width="5" stroke-miterlimit="10"/>
</g>
<defs>
<clipPath id="clip0_648_1037">
<rect width="630" height="509" fill="white"/>
</clipPath>
</defs>
</svg>
