<svg width="450" height="500" viewBox="0 0 450 500" fill="none" xmlns="http://www.w3.org/2000/svg">
<g clip-path="url(#clip0_643_1257)">
<path d="M224.984 13.0336V486.996C224.984 488.591 223.609 489.886 221.915 489.871C216.214 489.833 210.775 489.675 206.975 489.389C206.379 489.344 205.83 489.133 205.353 488.787C53.2961 377.141 9.74007 207.331 10.7101 32.8404C10.7101 31.6589 11.4734 30.5903 12.6343 30.1689C48.0246 17.3306 134.858 10.5803 221.931 10.1514C223.616 10.1439 224.992 11.4382 224.992 13.0336H224.984Z" fill="#B4CC25"/>
<path d="M235.678 497.125C235.678 498.713 234.319 500 232.641 500H224.984C216.818 500 209.575 499.782 205.106 499.39L202.888 499.195C202.316 499.142 201.767 498.939 201.306 498.608L199.541 497.321C126.566 443.951 73.0149 373.288 40.3836 287.296C12.4991 213.773 -0.707619 129.88 0.031833 30.8164L0.0715885 26.0076C0.0795396 24.8487 0.818991 23.8102 1.94805 23.3662L6.64714 21.5301C46.2992 6.05792 145.418 0.278438 224.952 0.0225761L232.633 0C234.311 0 235.678 1.28684 235.678 2.87469V497.125ZM211.054 479.486C211.054 479.486 211.078 479.486 211.094 479.486C212.827 479.569 214.298 478.259 214.298 476.611V23.2383C214.298 21.6354 212.906 20.341 211.213 20.3561C127.949 21.2366 57.232 27.6783 23.5194 37.3408C22.2392 37.7096 21.3805 38.8459 21.3805 40.1102C21.7145 241.353 83.2559 384.99 209.313 478.869C209.813 479.238 210.418 479.456 211.046 479.486H211.054Z" fill="#DB7726"/>
<path d="M243.017 489.389C239.209 489.675 233.746 489.833 228.053 489.871C226.368 489.886 224.992 488.592 224.992 486.996V13.0115C224.992 11.4236 226.352 10.1368 228.03 10.1292C317.384 9.98626 405.736 16.5408 437.541 30.1015C438.614 30.5606 439.282 31.5916 439.29 32.7053C440.276 207.241 396.744 377.103 244.639 488.78C244.17 489.126 243.614 489.337 243.017 489.382V489.389Z" fill="#D2E877"/>
<path d="M224.992 500H217.335C215.657 500 214.298 498.713 214.298 497.126V2.92761C214.298 1.34729 215.65 0.0604494 217.327 0.052924L224.952 0.0303479C307.699 -0.23304 408.662 5.33573 444.005 21.8163L448.243 23.7954C449.276 24.2771 449.928 25.2629 449.936 26.3541L449.968 30.8241C450.708 129.888 437.501 213.788 409.601 287.303C376.969 373.296 323.419 443.959 250.444 497.329L248.678 498.616C248.225 498.947 247.677 499.157 247.096 499.203L244.878 499.398C240.409 499.782 233.158 500.008 224.976 500.008L224.992 500ZM235.678 23.1483V476.619C235.678 478.267 237.141 479.569 238.883 479.494C238.906 479.494 238.922 479.494 238.946 479.494C239.582 479.464 240.187 479.245 240.68 478.877C366.832 384.93 428.373 241.15 428.612 39.6739C428.612 38.4473 427.801 37.326 426.568 36.9347C395.607 27.0765 323.625 20.6423 238.74 20.2736C237.054 20.2736 235.67 21.5604 235.67 23.1558L235.678 23.1483Z" fill="#D56C06"/>
<path d="M103.707 215.053C69.0966 257.785 113.894 344.844 127.052 366.665C133.168 376.814 134.88 378.33 137.315 379.805C141.629 382.415 144.6 382.873 149.706 380.935C154.812 378.996 267.649 359.869 292.546 343.488C296.617 340.812 293.121 307.26 269.361 308.021C261.622 308.271 251.647 307.189 244.17 305.625C223.529 301.308 195.986 292.336 169.427 319.098C162.679 325.894 159.841 322.148 156.736 331.751C152.697 344.243 152.198 346.413 156.736 331.751C162.442 313.325 151.067 307.926 134.465 286.206C124.176 272.751 119.473 255.966 123.224 251.394C126.975 246.821 148.358 252.541 150.601 243.188C152.844 233.836 156.844 216.498 147.22 212.359C137.603 208.221 107.995 209.779 103.714 215.065L103.707 215.053Z" fill="#FFFCF3"/>
<path d="M156.736 331.751C159.841 322.148 162.679 325.894 169.427 319.098C195.986 292.336 223.529 301.308 244.17 305.625C251.647 307.189 261.622 308.271 269.361 308.021C293.121 307.26 296.617 340.812 292.546 343.488C267.649 359.869 154.812 378.996 149.706 380.935C144.6 382.873 141.629 382.415 137.315 379.805C134.88 378.33 133.168 376.814 127.052 366.665C113.894 344.844 69.0966 257.785 103.707 215.053L103.714 215.065C107.995 209.779 137.603 208.221 147.22 212.359C156.844 216.498 152.844 233.836 150.601 243.188C148.358 252.541 126.975 246.821 123.224 251.394C119.473 255.966 124.176 272.751 134.465 286.206C151.067 307.926 162.442 313.325 156.736 331.751ZM156.736 331.751C152.198 346.413 152.697 344.243 156.736 331.751Z" stroke="#D56C06" stroke-width="10" stroke-miterlimit="10"/>
<path d="M149.482 240.222C149.342 242.35 148.255 238.075 129.921 237.831C123.288 237.742 119 236.167 118.616 233.093C118.354 230.97 119.505 229.287 120.617 228.449C124.4 225.446 133.072 221.504 141.341 225.547C142.875 226.297 145.118 226.457 144.05 227.724L143.239 228.687C142.408 229.668 139.098 229.941 137.89 229.388C135.596 228.348 130.873 228.562 128.886 228.966C126.272 229.501 124.291 232.314 126.732 233.336C126.758 233.348 132.707 233.681 132.733 233.693C138.037 235.893 146.971 235.614 154.326 234.93C155.074 234.859 149.521 239.591 149.482 240.216V240.222Z" fill="#D56C06"/>
<path d="M240.745 325.614C218.947 339.575 212.365 338.832 195.072 340.384Z" fill="#FFFCF3"/>
<path d="M195.072 340.396C194.925 338.963 196.062 337.691 197.602 337.56C198.254 337.506 198.887 337.453 199.507 337.405C212.633 336.329 219.483 335.77 236.891 324.919C238.156 324.134 239.869 324.438 240.732 325.603C241.614 326.798 241.269 328.433 239.971 329.242C221.375 340.824 213.623 341.46 199.993 342.572C199.373 342.626 198.746 342.673 198.101 342.727C196.574 342.852 195.219 341.811 195.072 340.39V340.396Z" fill="#D56C06"/>
<path d="M388.088 191.708C396.587 202.174 397.31 216.015 389.914 226.976C380.845 240.413 364.029 247.458 341.131 244.923C340.927 244.897 340.78 245.027 340.722 245.196C338.298 251.461 332.384 266.319 322.979 289.77L321.592 292.996C321.139 294.058 319.569 294.306 318.744 293.439L316.232 290.8C297.89 271.615 262.572 267.881 236.775 265.144C226.436 264.049 217.499 263.11 211.38 261.358L210.19 261.019C208.751 260.608 207.97 259.233 208.423 257.956L208.802 256.894C210.27 252.808 213.366 247.653 217.272 241.13C223.596 230.58 227.597 225.288 227.502 225.21C208.291 206.618 180.625 173.162 196.952 146.763C206.751 130.921 230.708 122.853 255.219 127.141C278.629 131.227 294.794 145.701 297.452 164.938C297.452 164.944 297.452 164.957 297.467 164.97C299.818 173.742 301.636 176.687 305.543 177.977C308.989 179.111 317.262 178.147 320.255 177.521C363.832 168.6 382.203 184.455 388.088 191.701V191.708ZM383.094 223.307C388.84 214.796 388.263 204.031 381.633 195.872C376.683 189.779 360.97 176.472 322.037 184.455C319.474 184.976 310.617 185.797 308.697 185.296C290.267 184.52 268.749 177.293 260.477 174.276C258.578 173.585 257.716 171.63 258.542 169.962L258.702 169.656C259.571 167.909 261.827 167.101 263.806 167.811C269.246 169.773 280.271 173.481 291.969 175.925C292.925 176.127 293.706 175.214 293.21 174.465C291.713 172.191 290.034 164.468 290.034 164.468C287.858 148.06 273.999 137.666 253.701 134.114C235.841 130.993 213.016 135.522 203.932 150.204C198.149 159.555 194.856 181.275 228.575 216.152C229.247 216.843 231.781 216.171 231.744 214.001C231.701 210.313 230.51 206.637 230.226 202.773C230.189 202.304 230.262 201.848 230.415 201.418C230.875 200.134 232.131 199.137 233.723 198.954C235.957 198.713 238.002 200.166 238.163 202.187C239.477 219.169 242.12 211.512 235.03 225.484C234.468 226.578 235.249 227.869 236.593 228.005C257.95 230.364 276.876 239.064 284.112 242.746C285.828 243.619 286.361 245.587 285.302 247.073L284.966 247.549C283.857 249.119 281.571 249.621 279.76 248.722C272.269 244.988 252.62 236.151 231.73 234.711C230.737 234.639 229.809 235.135 229.364 235.91C227.604 238.953 225.888 241.821 224.297 244.473C222.303 247.803 220.463 250.885 219.003 253.551C218.448 254.561 219.134 255.773 220.376 255.981C225.217 256.77 231.175 257.395 237.717 258.086C262.295 260.686 295.101 264.166 316.188 280.673C316.955 281.285 318.189 281.018 318.547 280.151C337.327 235.526 337.071 234.835 332.603 232.098C328.82 229.791 319.423 227.973 310.201 228.162C302.125 228.331 292.305 228.527 281.834 226.435C279.695 226.011 278.417 224.05 279.008 222.167L279.118 221.834C279.658 220.127 281.622 219.117 283.557 219.501C293.042 221.404 302.016 221.228 310.011 221.065C321.146 220.844 334.888 223.19 341.262 228.625C343.942 230.925 343.555 233.838 343.329 237.78C343.278 238.191 343.533 238.439 343.716 238.465C363.963 240.863 375.515 234.548 383.101 223.3L383.094 223.307Z" fill="#97BF0D"/>
<path d="M381.641 195.872C388.271 204.037 388.84 214.796 383.101 223.307C375.515 234.548 363.963 240.863 343.716 238.471C343.533 238.438 343.278 238.197 343.329 237.787C343.548 233.844 343.942 230.931 341.262 228.631C334.895 223.196 321.146 220.85 310.011 221.072C302.016 221.235 293.042 221.417 283.557 219.508C281.615 219.123 279.658 220.127 279.118 221.841L279.008 222.173C278.417 224.056 279.687 226.024 281.834 226.441C292.305 228.533 302.125 228.338 310.201 228.168C319.423 227.986 328.82 229.797 332.603 232.104C337.071 234.841 337.327 235.532 318.547 280.158C318.189 281.025 316.955 281.292 316.188 280.679C295.101 264.173 262.295 260.693 237.717 258.093C231.175 257.402 225.217 256.776 220.376 255.988C219.134 255.779 218.448 254.574 219.003 253.557C220.463 250.898 222.296 247.809 224.297 244.479C225.896 241.827 227.604 238.96 229.364 235.917C229.809 235.141 230.737 234.646 231.73 234.718C252.62 236.158 272.269 244.994 279.76 248.728C281.571 249.628 283.856 249.126 284.966 247.555L285.302 247.08C286.361 245.594 285.828 243.626 284.112 242.752C276.876 239.071 257.95 230.377 236.593 228.012C235.249 227.869 234.468 226.585 235.03 225.49C242.12 211.518 239.469 219.175 238.162 202.193C238.002 200.179 235.957 198.72 233.723 198.961C232.131 199.143 230.875 200.14 230.415 201.424C230.262 201.848 230.196 202.31 230.226 202.78C230.51 206.644 231.693 210.319 231.744 214.008C231.774 216.178 229.24 216.849 228.575 216.158C194.856 181.281 198.149 159.561 203.932 150.21C213.015 135.528 235.841 130.999 253.7 134.12C273.999 137.672 287.858 148.06 290.034 164.475C290.034 164.475 291.713 172.197 293.21 174.471C293.706 175.221 292.925 176.127 291.969 175.931C280.279 173.487 269.253 169.779 263.806 167.818C261.827 167.101 259.571 167.916 258.702 169.662L258.542 169.968C257.716 171.637 258.578 173.592 260.476 174.282C268.749 177.3 290.267 184.527 308.697 185.302C310.617 185.81 319.474 184.989 322.037 184.461C360.97 176.478 376.683 189.785 381.633 195.878L381.641 195.872Z" fill="#FFFCF3"/>
<path d="M205.32 65.52L179.47 90.68L185.58 126.24L153.65 109.46L121.73 126.24L127.83 90.68L102 65.52L137.69 60.34L153.65 28L169.61 60.34L205.32 65.52Z" fill="#FFFCF3"/>
<path d="M153.65 28L169.61 60.34L205.32 65.52L179.47 90.68L185.58 126.24L153.65 109.46L121.73 126.24L127.83 90.68L102 65.52L137.69 60.34L153.65 28Z" stroke="#97BF0D" stroke-width="3" stroke-miterlimit="10"/>
<path d="M347.32 65.52L321.47 90.68L327.58 126.24L295.65 109.46L263.73 126.24L269.83 90.68L244 65.52L279.69 60.34L295.65 28L311.61 60.34L347.32 65.52Z" fill="#FFFCF3"/>
<path d="M295.65 28L311.61 60.34L347.32 65.52L321.47 90.68L327.58 126.24L295.65 109.46L263.73 126.24L269.83 90.68L244 65.52L279.69 60.34L295.65 28Z" stroke="#97BF0D" stroke-width="3" stroke-miterlimit="10"/>
</g>
<defs>
<clipPath id="clip0_643_1257">
<rect width="450" height="500" fill="white"/>
</clipPath>
</defs>
</svg>
