<svg width="450" height="500" viewBox="0 0 450 500" fill="none" xmlns="http://www.w3.org/2000/svg">
<g clip-path="url(#clip0_643_1335)">
<path d="M235.681 3.06261V496.944C235.681 498.52 234.315 499.814 232.65 499.814H225C216.84 499.814 209.622 499.591 205.13 499.204L202.907 499.003C202.349 498.966 201.799 498.758 201.344 498.416L199.569 497.145C126.653 443.797 73.1596 373.208 40.5578 287.26C12.6841 213.795 -0.518366 129.973 0.235614 30.9635L0.259175 26.1684C0.282737 25.016 1.0053 23.9678 2.13627 23.5218L6.83293 21.7004C46.464 6.23705 145.479 0.453181 224.953 0.20785L232.626 0.185547C234.315 0.185547 235.681 1.45681 235.681 3.05518V3.06261ZM225 486.811V13.2104C225 11.612 223.633 10.3185 221.945 10.3408C134.954 10.7645 48.1761 17.5 12.8176 30.339C11.6631 30.7404 10.8934 31.8184 10.8934 32.9856C9.93524 207.357 53.4461 377.044 205.389 488.603C205.86 488.945 206.418 489.146 207.014 489.213C210.792 489.495 216.243 489.636 221.929 489.681C223.618 489.703 225.008 488.41 225.008 486.811H225Z" fill="#9BBA15"/>
<path d="M225 13.2107V486.812C225 488.41 223.61 489.704 221.921 489.681C216.235 489.644 210.792 489.503 207.007 489.213C206.41 489.153 205.852 488.953 205.381 488.603C53.4463 377.044 9.92755 207.364 10.8936 32.9859C10.8936 31.8113 11.6633 30.7408 12.8178 30.3393C48.1684 17.5003 134.947 10.7649 221.945 10.3411C223.634 10.3188 225 11.6124 225 13.2107ZM214.319 476.456V23.4031C214.319 21.8048 212.929 20.5112 211.224 20.5335C128.035 21.4033 57.389 27.834 23.6955 37.4985C22.4389 37.8628 21.5592 39.0151 21.5592 40.2715C21.9048 241.361 83.3855 384.895 209.347 478.701C209.842 479.065 210.439 479.288 211.075 479.31C211.075 479.31 211.088 479.318 211.114 479.333C212.842 479.415 214.319 478.099 214.319 476.463V476.456Z" fill="#9BBA15"/>
<path d="M214.318 23.4031V476.456C214.318 478.091 212.842 479.407 211.114 479.325C211.114 479.325 211.101 479.318 211.074 479.303C210.43 479.281 209.834 479.058 209.347 478.693C83.3771 384.895 21.8964 241.354 21.5508 40.2715C21.5508 39.0151 22.4304 37.8628 23.6871 37.4985C57.3805 27.8339 128.027 21.4033 211.216 20.5335C212.928 20.5112 214.31 21.8047 214.31 23.4031H214.318Z" fill="#DB7726"/>
<path d="M449.78 30.9788C450.502 129.966 437.324 213.803 409.442 287.268C376.84 373.194 323.347 443.804 250.431 497.131L248.656 498.424C248.208 498.751 247.651 498.967 247.077 499.011L244.855 499.212C240.394 499.599 233.144 499.822 224.984 499.822H217.334C215.646 499.822 214.303 498.528 214.303 496.952V3.10763C214.303 1.53157 215.646 0.238001 217.319 0.238001L224.945 0.215699C307.639 -0.0445013 408.5 5.51634 443.811 21.9758L448.044 23.9608C449.073 24.4292 449.733 25.4179 449.733 26.5107L449.772 30.9788H449.78ZM244.627 488.596C396.585 377.015 440.104 207.268 439.099 32.8745C439.099 31.7594 438.439 30.7334 437.371 30.2651C405.586 16.7198 317.307 10.1628 228.031 10.304C226.343 10.304 225 11.5976 225 13.196V486.819C225 488.418 226.366 489.711 228.055 489.689C233.757 489.652 239.208 489.488 243.009 489.206C243.606 489.168 244.163 488.945 244.635 488.596H244.627Z" fill="#97BF0D"/>
<path d="M439.099 32.8748C440.104 207.268 396.585 377.015 244.627 488.596C244.156 488.938 243.598 489.161 243.001 489.206C239.2 489.488 233.749 489.652 228.047 489.689C226.359 489.711 224.992 488.418 224.992 486.819V13.2037C224.992 11.6054 226.335 10.3118 228.024 10.3118C317.3 10.1706 405.578 16.7202 437.363 30.2729C438.431 30.7412 439.091 31.7671 439.091 32.8823L439.099 32.8748ZM428.441 39.811C428.441 38.5992 427.632 37.4841 426.415 37.0827C395.478 27.2322 323.551 20.8016 238.737 20.4373C237.072 20.4373 235.681 21.7086 235.681 23.3069V476.449C235.681 478.107 237.134 479.4 238.886 479.318H238.949C239.569 479.296 240.166 479.073 240.677 478.694C366.725 384.821 428.205 241.146 428.441 39.8185V39.811Z" fill="#97BF0D"/>
<path d="M426.407 37.0823C427.624 37.4837 428.433 38.5988 428.433 39.8106C428.198 241.138 366.717 384.821 240.669 478.686C240.158 479.073 239.562 479.296 238.941 479.31H238.878C237.127 479.392 235.674 478.099 235.674 476.441V23.314C235.674 21.7156 237.064 20.4443 238.729 20.4443C323.544 20.8086 395.47 27.2393 426.407 37.0897V37.0823Z" fill="#F99D4B"/>
<path d="M338.076 297.453L339.371 316.648C339.631 320.551 334.73 322.752 331.698 320.097L299.638 291.966C293.371 286.472 285.148 283.417 276.603 283.417H182.308C146.793 283.417 118 256.163 118 222.545V181.872C118 148.254 146.793 121 182.308 121H337.125C372.641 121 401.433 148.254 401.433 181.872V222.545C401.433 251.94 379.427 276.466 350.155 282.168C342.67 283.625 337.581 290.234 338.068 297.453H338.076Z" fill="#FFFCF3" stroke="#D56C06" stroke-width="10" stroke-miterlimit="10"/>
<path d="M256.151 187.426H161.707C159.347 187.426 157.435 189.236 157.435 191.47C157.435 193.704 159.347 195.514 161.707 195.514H256.151C258.511 195.514 260.423 193.704 260.423 191.47C260.423 189.236 258.511 187.426 256.151 187.426Z" fill="#D56C06"/>
<path d="M351.828 187.426H303.259C300.899 187.426 298.986 189.236 298.986 191.47C298.986 193.704 300.899 195.514 303.259 195.514H351.828C354.187 195.514 356.1 193.704 356.1 191.47C356.1 189.236 354.187 187.426 351.828 187.426Z" fill="#D56C06"/>
<path d="M351.828 213.728H161.707C159.347 213.728 157.435 215.538 157.435 217.772C157.435 220.005 159.347 221.816 161.707 221.816H351.828C354.187 221.816 356.1 220.005 356.1 217.772C356.1 215.538 354.187 213.728 351.828 213.728Z" fill="#D56C06"/>
<path d="M351.828 240.863H263.997C261.637 240.863 259.725 242.674 259.725 244.908C259.725 247.141 261.637 248.952 263.997 248.952H351.828C354.188 248.952 356.1 247.141 356.1 244.908C356.1 242.674 354.188 240.863 351.828 240.863Z" fill="#D56C06"/>
<path d="M216.457 240.863H161.707C159.347 240.863 157.435 242.674 157.435 244.908C157.435 247.141 159.347 248.952 161.707 248.952H216.457C218.817 248.952 220.73 247.141 220.73 244.908C220.73 242.674 218.817 240.863 216.457 240.863Z" fill="#D56C06"/>
<path d="M173.92 145.489L176.347 150.135C176.622 150.663 177.156 151.035 177.776 151.117L183.196 151.86C184.751 152.076 185.371 153.89 184.248 154.923L180.329 158.544C179.881 158.96 179.677 159.555 179.779 160.135L180.706 165.242C180.973 166.714 179.347 167.829 177.949 167.138L173.103 164.729C172.553 164.454 171.886 164.454 171.336 164.729L166.49 167.138C165.1 167.829 163.466 166.714 163.733 165.242L164.66 160.135C164.762 159.555 164.558 158.96 164.11 158.544L160.191 154.923C159.068 153.882 159.689 152.068 161.244 151.86L166.663 151.117C167.283 151.035 167.818 150.663 168.092 150.135L170.519 145.489C171.218 144.151 173.229 144.151 173.928 145.489H173.92Z" fill="#FFFCF3" stroke="#D56C06" stroke-width="5" stroke-miterlimit="10"/>
<path d="M213.489 145.659L215.798 150.09C216.089 150.648 216.654 151.034 217.306 151.123L222.474 151.837C224.115 152.06 224.767 153.971 223.581 155.064L219.843 158.513C219.372 158.944 219.159 159.576 219.269 160.186L220.149 165.055C220.432 166.602 218.712 167.776 217.251 167.048L212.633 164.751C212.052 164.461 211.353 164.461 210.771 164.751L206.153 167.048C204.685 167.776 202.972 166.602 203.255 165.055L204.135 160.186C204.245 159.569 204.033 158.944 203.561 158.513L199.823 155.064C198.637 153.971 199.289 152.06 200.93 151.837L206.098 151.123C206.75 151.034 207.316 150.648 207.606 150.09L209.915 145.659C210.646 144.254 212.766 144.254 213.497 145.659H213.489Z" fill="#FFFCF3" stroke="#D56C06" stroke-width="5" stroke-miterlimit="10"/>
<path d="M251.274 145.778L253.504 150.053C253.803 150.633 254.392 151.034 255.06 151.124L260.047 151.808C261.743 152.038 262.419 154.016 261.193 155.146L257.581 158.476C257.094 158.93 256.874 159.576 256.984 160.208L257.832 164.914C258.123 166.513 256.348 167.732 254.832 166.981L250.371 164.758C249.766 164.461 249.051 164.461 248.446 164.758L243.985 166.981C242.47 167.739 240.695 166.513 240.985 164.914L241.833 160.208C241.951 159.576 241.724 158.922 241.237 158.476L237.624 155.146C236.399 154.016 237.074 152.038 238.77 151.808L243.758 151.124C244.433 151.034 245.014 150.633 245.313 150.053L247.543 145.778C248.305 144.321 250.496 144.321 251.258 145.778H251.274Z" fill="#FFFCF3" stroke="#D56C06" stroke-width="5" stroke-miterlimit="10"/>
<path d="M285.486 144.686L288.439 150.351C288.651 150.753 289.051 151.028 289.515 151.095L296.112 152.002C297.282 152.165 297.753 153.526 296.905 154.314L292.13 158.722C291.792 159.034 291.635 159.481 291.722 159.919L292.853 166.142C293.057 167.249 291.824 168.089 290.779 167.569L284.873 164.632C284.457 164.424 283.954 164.424 283.538 164.632L277.632 167.569C276.579 168.089 275.354 167.249 275.558 166.142L276.689 159.919C276.768 159.481 276.618 159.034 276.281 158.722L271.506 154.314C270.657 153.533 271.129 152.165 272.299 152.002L278.896 151.095C279.36 151.028 279.768 150.753 279.972 150.351L282.925 144.686C283.451 143.683 284.967 143.683 285.493 144.686H285.486Z" fill="#FFFCF3" stroke="#D56C06" stroke-width="5" stroke-miterlimit="10"/>
<path d="M141.628 392.074L140.984 401.657C140.85 403.605 143.301 404.705 144.809 403.381L160.815 389.338C163.941 386.595 168.049 385.071 172.313 385.071H219.382C237.108 385.071 251.481 371.466 251.481 354.687V334.384C251.481 317.605 237.108 304 219.382 304H142.099C124.373 304 110 317.605 110 334.384V354.687C110 369.362 120.988 381.599 135.596 384.446C139.327 385.175 141.871 388.476 141.628 392.074Z" fill="#FFFCF3" stroke="#D56C06" stroke-width="7" stroke-miterlimit="10"/>
<path d="M178.95 337.149H131.811C130.631 337.149 129.675 338.053 129.675 339.168C129.675 340.283 130.631 341.186 131.811 341.186H178.95C180.13 341.186 181.087 340.283 181.087 339.168C181.087 338.053 180.13 337.149 178.95 337.149Z" fill="#D56C06"/>
<path d="M226.71 337.149H202.473C201.293 337.149 200.337 338.053 200.337 339.168C200.337 340.283 201.293 341.186 202.473 341.186H226.71C227.89 341.186 228.847 340.283 228.847 339.168C228.847 338.053 227.89 337.149 226.71 337.149Z" fill="#D56C06"/>
<path d="M226.71 350.278H131.811C130.631 350.278 129.675 351.182 129.675 352.297C129.675 353.411 130.631 354.315 131.811 354.315H226.71C227.89 354.315 228.847 353.411 228.847 352.297C228.847 351.182 227.89 350.278 226.71 350.278Z" fill="#D56C06"/>
<path d="M226.703 363.823H182.87C181.69 363.823 180.733 364.727 180.733 365.842C180.733 366.956 181.69 367.86 182.87 367.86H226.703C227.882 367.86 228.839 366.956 228.839 365.842C228.839 364.727 227.882 363.823 226.703 363.823Z" fill="#D56C06"/>
<path d="M159.135 363.823H131.811C130.631 363.823 129.675 364.727 129.675 365.842C129.675 366.956 130.631 367.86 131.811 367.86H159.135C160.315 367.86 161.271 366.956 161.271 365.842C161.271 364.727 160.315 363.823 159.135 363.823Z" fill="#D56C06"/>
<path d="M137.906 316.215L139.115 318.534C139.256 318.802 139.523 318.98 139.83 319.025L142.532 319.397C143.309 319.501 143.623 320.408 143.058 320.928L141.102 322.735C140.882 322.943 140.78 323.24 140.827 323.53L141.291 326.08C141.424 326.816 140.607 327.374 139.916 327.024L137.497 325.82C137.222 325.686 136.892 325.686 136.617 325.82L134.198 327.024C133.499 327.374 132.691 326.809 132.824 326.08L133.287 323.53C133.342 323.24 133.24 322.943 133.013 322.735L131.057 320.928C130.491 320.408 130.806 319.508 131.583 319.397L134.285 319.025C134.591 318.98 134.858 318.802 135 318.534L136.209 316.215C136.555 315.546 137.56 315.546 137.906 316.215Z" fill="#FFFCF3" stroke="#D56C06" stroke-width="3" stroke-miterlimit="10"/>
<path d="M157.658 316.303L158.812 318.519C158.962 318.794 159.237 318.987 159.566 319.032L162.143 319.389C162.959 319.5 163.289 320.452 162.692 321.002L160.823 322.727C160.587 322.942 160.478 323.254 160.532 323.559L160.972 325.99C161.114 326.763 160.258 327.351 159.527 326.986L157.218 325.842C156.928 325.7 156.582 325.7 156.291 325.842L153.982 326.986C153.252 327.351 152.396 326.763 152.537 325.99L152.977 323.559C153.032 323.254 152.922 322.942 152.686 322.727L150.817 321.002C150.228 320.459 150.55 319.5 151.367 319.389L153.943 319.032C154.265 318.987 154.548 318.794 154.697 318.519L155.852 316.303C156.221 315.605 157.273 315.605 157.642 316.303H157.658Z" fill="#FFFCF3" stroke="#D56C06" stroke-width="3" stroke-miterlimit="10"/>
<path d="M176.524 316.363L177.639 318.496C177.788 318.786 178.079 318.987 178.416 319.032L180.906 319.374C181.754 319.493 182.092 320.474 181.479 321.039L179.681 322.704C179.437 322.927 179.327 323.254 179.382 323.567L179.807 325.916C179.948 326.711 179.068 327.321 178.306 326.949L176.076 325.842C175.777 325.693 175.416 325.693 175.118 325.842L172.887 326.949C172.125 327.328 171.246 326.719 171.387 325.916L171.811 323.567C171.866 323.247 171.756 322.927 171.513 322.704L169.714 321.039C169.102 320.474 169.439 319.485 170.288 319.374L172.777 319.032C173.115 318.987 173.406 318.786 173.555 318.496L174.67 316.363C175.047 315.634 176.147 315.634 176.524 316.363Z" fill="#FFFCF3" stroke="#D56C06" stroke-width="3" stroke-miterlimit="10"/>
<path d="M193.598 315.813L195.074 318.638C195.177 318.838 195.381 318.972 195.609 319.009L198.907 319.463C199.496 319.545 199.724 320.229 199.3 320.615L196.912 322.816C196.747 322.972 196.669 323.195 196.708 323.418L197.274 326.526C197.376 327.076 196.763 327.499 196.237 327.239L193.292 325.775C193.087 325.671 192.836 325.671 192.624 325.775L189.679 327.239C189.153 327.499 188.54 327.076 188.642 326.526L189.208 323.418C189.247 323.195 189.168 322.972 189.003 322.816L186.616 320.615C186.192 320.221 186.427 319.545 187.008 319.463L190.307 319.009C190.543 318.98 190.739 318.838 190.841 318.638L192.318 315.813C192.577 315.307 193.339 315.307 193.598 315.813Z" fill="#FFFCF3" stroke="#D56C06" stroke-width="3" stroke-miterlimit="10"/>
<path d="M376 67.1196L356.349 85.8683L361.001 112.35L336.728 99.8539L312.444 112.35L317.077 85.8683L297.426 67.1196L324.571 63.2483L336.728 39.1582L348.855 63.2483L376 67.1196Z" fill="#FFFCF3"/>
<path d="M274.993 50.7722L249.129 75.4308L255.242 110.282L223.294 93.8365L191.356 110.282L197.46 75.4308L171.615 50.7722L207.325 45.6955L223.294 14L239.263 45.6955L274.993 50.7722Z" fill="#FFFCF3"/>
<path d="M151.574 67.1196L131.923 85.8683L136.576 112.35L112.272 99.8539L87.9984 112.35L92.651 85.8683L73 67.1196L100.145 63.2483L112.272 39.1582L124.419 63.2483L151.574 67.1196Z" fill="#FFFCF3"/>
<path d="M223.294 14L239.263 45.6955L274.993 50.7722L249.129 75.4308L255.242 110.282L223.294 93.8365L191.356 110.282L197.46 75.4308L171.615 50.7722L207.325 45.6955L223.294 14Z" stroke="#97BF0D" stroke-width="3" stroke-miterlimit="10"/>
<path d="M336.728 39.1582L348.855 63.2483L376 67.1196L356.349 85.8683L361.001 112.35L336.728 99.8539L312.444 112.35L317.077 85.8683L297.426 67.1196L324.571 63.2483L336.728 39.1582Z" stroke="#97BF0D" stroke-width="3" stroke-miterlimit="10"/>
<path d="M112.272 39.1582L124.419 63.2483L151.574 67.1196L131.923 85.8683L136.576 112.35L112.272 99.8539L87.9984 112.35L92.651 85.8683L73 67.1196L100.145 63.2483L112.272 39.1582Z" stroke="#97BF0D" stroke-width="3" stroke-miterlimit="10"/>
</g>
<defs>
<clipPath id="clip0_643_1335">
<rect width="450" height="500" fill="white"/>
</clipPath>
</defs>
</svg>
