<svg width="450" height="500" viewBox="0 0 450 500" fill="none" xmlns="http://www.w3.org/2000/svg">
<path d="M235.477 2.87137V496.784C235.477 498.359 234.107 499.656 232.444 499.656H224.798C216.657 499.656 209.414 499.436 204.934 499.026L202.736 498.843C202.156 498.799 201.606 498.579 201.157 498.257L199.385 496.96C126.475 443.635 72.9796 373.015 40.378 287.093C12.489 213.632 -0.720363 129.783 0.0302563 30.8013L0.0766863 25.9889C0.0766863 24.8389 0.827305 23.806 1.93389 23.3592L6.63106 21.5207C46.2591 6.06505 145.302 0.285672 224.752 0.0439496L232.42 0C234.107 0 235.477 1.29651 235.477 2.87137ZM224.798 486.647V13.0457C224.798 11.4489 223.428 10.1524 221.741 10.1524C134.747 10.5772 47.9925 17.3308 12.6128 30.1494C11.4598 30.5743 10.7092 31.6437 10.6937 32.8157C9.73413 207.171 53.2468 376.861 205.189 488.427C205.661 488.771 206.218 488.991 206.814 489.035C210.614 489.32 216.046 489.481 221.749 489.518C223.413 489.54 224.806 488.244 224.806 486.647H224.798Z" fill="#DB7726"/>
<path d="M224.798 13.0457V486.647C224.798 488.244 223.413 489.54 221.742 489.518C216.039 489.474 210.614 489.313 206.807 489.035C206.211 488.991 205.654 488.771 205.182 488.427C53.2471 376.861 9.72662 207.178 10.6939 32.823C10.7171 31.651 11.46 30.5816 12.613 30.1567C47.9927 17.3308 134.747 10.5772 221.742 10.1523C223.429 10.1523 224.798 11.4489 224.798 13.0457ZM214.119 476.282V23.2347C214.119 21.6159 212.734 20.3194 211.04 20.3413C127.829 21.2276 57.1781 27.6589 23.5086 37.3279C22.224 37.6941 21.3728 38.8221 21.3728 40.0967C21.6901 241.188 83.2022 384.728 209.136 478.516C209.623 478.897 210.25 479.124 210.869 479.146H210.916C212.649 479.227 214.119 477.93 214.119 476.275V476.282Z" fill="#DB7726"/>
<path d="M214.119 23.2349V476.275C214.119 477.93 212.649 479.227 210.915 479.146H210.869C210.25 479.124 209.631 478.904 209.136 478.516C83.2019 384.728 21.6898 241.188 21.3726 40.1043C21.3726 38.8297 22.2238 37.6944 23.5083 37.3354C57.1779 27.6665 127.829 21.2352 211.039 20.3489C212.726 20.3269 214.119 21.6234 214.119 23.2423V23.2349Z" fill="#F99D4B"/>
<path d="M449.581 30.8089C450.332 129.798 437.123 213.639 409.249 287.108C376.648 373.03 323.152 443.649 250.242 496.975L248.47 498.272C248.021 498.594 247.464 498.799 246.891 498.858L244.693 499.041C240.205 499.422 232.962 499.649 224.806 499.649H217.16C215.497 499.649 214.127 498.374 214.127 496.777V2.93748C214.127 1.34064 215.473 0.0661064 217.16 0.0441316L224.767 0.0221568C307.467 -0.219566 408.321 5.34006 443.638 21.7992L447.871 23.7623C448.901 24.2457 449.558 25.2419 449.581 26.3333L449.605 30.8015L449.581 30.8089ZM244.423 488.434C396.404 376.846 439.901 207.098 438.918 32.684C438.895 31.5707 438.237 30.5598 437.169 30.0983C405.38 16.5472 317.109 9.99872 227.824 10.1379C226.16 10.1379 224.79 11.4344 224.79 13.0093V486.654C224.79 488.229 226.176 489.526 227.847 489.526C233.55 489.482 238.998 489.32 242.805 489.042C243.401 488.998 243.958 488.778 244.43 488.434H244.423Z" fill="#D56C06"/>
<path d="M438.918 32.6841C439.901 207.098 396.404 376.846 244.423 488.434C243.951 488.778 243.393 488.998 242.798 489.042C238.998 489.328 233.55 489.489 227.839 489.526C226.176 489.526 224.783 488.229 224.783 486.654V13.0093C224.783 11.4344 226.152 10.1379 227.816 10.1379C317.093 9.99874 405.372 16.5472 437.161 30.0984C438.229 30.5598 438.895 31.578 438.91 32.6841H438.918ZM428.239 39.6427C428.239 38.4122 427.45 37.2988 426.212 36.9105C395.274 27.0658 323.369 20.6345 238.557 20.2683C236.87 20.2463 235.477 21.5428 235.477 23.1397V476.282C235.477 477.923 236.947 479.234 238.681 479.153H238.743C239.362 479.109 239.981 478.89 240.476 478.524C366.518 384.654 428.007 240.969 428.239 39.6354V39.6427Z" fill="#D56C06"/>
<path d="M426.212 36.9101C427.45 37.291 428.239 38.4044 428.239 39.6423C428.007 240.975 366.518 384.654 240.476 478.53C239.989 478.897 239.362 479.116 238.743 479.16H238.681C236.947 479.241 235.477 477.93 235.477 476.289V23.1392C235.477 21.5424 236.862 20.2459 238.557 20.2679C323.369 20.6341 395.282 27.0654 426.212 36.9101Z" fill="#FFCA7D"/>
<path d="M285.765 213.688L283.691 216.684C249.487 269.181 257.713 306.575 260.832 320.624C261.946 325.737 262.457 328.066 260.723 329.422C260.081 329.905 258.928 330.352 257.133 329.627C237.222 321.599 185.205 329.685 184.671 329.766L182.427 330.132L182.195 327.971C180.701 313.475 188.068 296.342 195.187 279.78C203.181 261.256 210.695 243.786 203.305 234.622C197.71 227.708 191.96 222.067 187.519 219.115C184.934 217.394 183.905 214.684 184.632 211.512C185.955 205.667 192.897 199.316 199.18 198.188C202.964 197.5 206.145 198.715 208.172 201.609C211.678 206.582 222.333 223.166 222.782 223.877C224.384 226.081 226.412 228.286 227.735 229.356C228.013 226.345 228.052 219.994 228.098 215.482C228.207 201.667 228.377 200.62 229.484 199.668L230.165 199.06L231.171 199.118C232.919 199.279 235.318 199.441 237.648 199.602C240.317 199.763 242.863 199.946 244.248 200.107C246.686 200.408 246.725 202.129 247.05 213.351C247.135 216.808 247.266 221.459 247.522 222.814C248.102 223.584 248.009 224.111 247.413 227.422C246.601 232.029 244.419 244.284 246.926 247.624C247.204 247.99 247.437 248.071 247.653 248.107C249.557 248.408 254.339 243.251 265.645 216.881C269.259 208.487 269.383 208.165 271.263 208.304C272.393 208.384 273.716 209.095 276.943 210.97C278.545 211.9 281.238 213.475 282.027 213.6L285.765 213.68V213.688ZM281.88 215.629C279.891 215.585 272.695 210.428 271.093 210.333C269.916 210.23 255.539 251.404 247.297 250.093C241.037 249.104 244.496 231.89 245.525 225.95C245.742 224.719 245.842 223.964 245.742 223.95C244.628 223.825 245.208 202.268 243.993 202.107C241.517 201.807 234.676 201.477 231 201.133C229.7 201.133 230.83 230.857 229.375 231.81C227.007 233.304 220.979 224.917 220.979 224.917C220.979 224.917 209.913 207.71 206.408 202.715C199.676 193.17 180.005 211.651 188.741 217.46C193.547 220.632 199.405 226.462 205 233.392C219.996 251.975 181.158 297.17 184.338 327.766C184.338 327.766 237.253 319.416 257.999 327.766C267.185 331.487 234.63 288.153 281.888 215.636L281.88 215.629Z" fill="#71820C"/>
<path d="M245.518 225.942C244.488 231.89 241.029 249.096 247.29 250.085C255.539 251.396 269.917 210.23 271.085 210.326C272.687 210.428 279.884 215.585 281.872 215.621C234.614 288.138 267.177 331.473 257.984 327.752C237.238 319.401 184.323 327.752 184.323 327.752C181.142 297.155 219.981 251.96 204.984 233.377C199.389 226.44 193.531 220.617 188.726 217.445C179.989 211.644 199.668 193.156 206.393 202.7C209.898 207.696 220.964 224.902 220.964 224.902C220.964 224.902 226.992 233.297 229.36 231.795C230.815 230.843 229.677 201.118 230.985 201.118C234.661 201.462 241.494 201.785 243.978 202.092C245.193 202.253 244.62 223.811 245.727 223.935C245.835 223.957 245.727 224.704 245.51 225.935L245.518 225.942ZM278.715 216.662C277.601 216.112 276.301 215.35 274.699 214.42C273.91 213.959 272.865 213.351 272.006 212.904C271.41 214.215 270.489 216.339 269.592 218.427C259.895 241.039 253.38 253.125 246.949 252.1C245.541 251.88 244.341 251.147 243.444 249.975C240.348 245.851 241.501 236.388 243.212 226.763C243.359 225.972 243.513 225.085 243.599 224.558C243.041 223.042 242.956 219.95 242.786 213.453C242.701 210.377 242.569 205.989 242.337 203.989C240.991 203.865 239.157 203.748 237.361 203.623C235.736 203.521 234.096 203.403 232.664 203.301C232.448 205.872 232.409 211.307 232.386 215.512C232.254 231.246 232.022 232.542 230.567 233.472C227.147 235.633 222.512 230.638 219.2 226.052C219.029 225.788 208.072 208.743 204.628 203.828C203.777 202.634 202.639 202.048 201.169 202.048C200.782 202.048 200.403 202.092 199.97 202.173C195.396 202.979 189.755 208.135 188.796 212.362C188.324 214.442 189.244 215.336 189.972 215.797C194.824 219.013 200.759 224.836 206.702 232.154C215.57 243.156 207.6 261.681 199.157 281.297C192.58 296.562 185.809 312.34 186.296 325.444C196.681 323.95 237.996 318.588 257.458 325.4C257.288 324.331 256.97 322.895 256.645 321.459C253.48 307.139 245.169 269.43 278.715 216.669V216.662Z" fill="#71820C"/>
<path d="M274.699 214.412C276.3 215.343 277.601 216.112 278.715 216.654C245.177 269.415 253.488 307.131 256.645 321.444C256.962 322.88 257.287 324.316 257.458 325.385C237.996 318.573 196.681 323.927 186.296 325.429C185.808 312.325 192.579 296.554 199.157 281.282C207.592 261.665 215.562 243.141 206.702 232.139C200.767 224.821 194.823 218.998 189.972 215.782C189.244 215.321 188.323 214.427 188.795 212.347C189.755 208.12 195.396 202.963 199.969 202.158C200.395 202.077 200.782 202.033 201.169 202.033C202.639 202.033 203.777 202.619 204.628 203.813C208.064 208.728 219.029 225.773 219.199 226.037C222.511 230.63 227.147 235.625 230.567 233.457C232.022 232.527 232.254 231.23 232.385 215.496C232.409 211.292 232.447 205.849 232.664 203.286C234.096 203.388 235.744 203.506 237.361 203.608C239.156 203.733 240.99 203.85 242.337 203.974C242.569 205.974 242.701 210.362 242.786 213.438C242.956 219.928 243.041 223.026 243.598 224.543C243.513 225.07 243.366 225.956 243.211 226.748C241.501 236.372 240.348 245.836 243.443 249.96C244.341 251.132 245.541 251.865 246.949 252.084C253.38 253.117 259.895 241.024 269.591 218.412C270.489 216.331 271.41 214.207 272.006 212.889C272.857 213.336 273.909 213.944 274.699 214.405V214.412Z" fill="#97BF0D"/>
<path d="M283.639 167.87C287.547 163.724 286.502 157.139 281.766 157.022C285.372 153.88 283.848 147.141 280.822 147.177C282.37 144.328 279.839 139.559 274.995 141.588C278.067 139.259 275.808 132.696 270.608 134.19C272.031 128.513 265.678 126.492 262.064 130.594C266.081 126.309 263.148 118.632 259.998 119.775C261.948 116.222 256.802 113.497 254.806 115.636C257.228 110.501 251.324 108.861 249.466 110.846C250.759 106.326 243.407 105.66 240.769 109.542C239.445 106.019 230.763 105.887 232.179 112.201C229.509 107.007 219.001 110.663 221.221 117.9C215.364 110.926 208.832 114.662 209.684 120.866C205.977 115.431 196.946 121.547 199.616 127.803C194.168 123.576 182.36 136.996 189.951 140.907C183.056 138.065 174.234 147.976 180.115 153.88C173.159 152.254 165.683 164.874 176.3 165.38C172.238 167.094 170.667 174.521 176.115 174.404C171.758 177.957 172.841 182.901 178.072 181.282C172.292 187.04 175.147 192.988 179.133 192.109C176.741 197.397 183.884 201.917 190.276 197.734C187.436 202.151 190.268 208.817 196.637 206.224C194.284 211.981 202.448 216.142 207.231 212.56C206.457 217.05 211.572 219.416 214.69 215.79C215.039 219.621 225.818 217.167 227.397 210.765C229.757 212.084 236.822 208.597 237.681 203.404C242.208 207.235 252.546 197.58 250.55 193.53C252.608 195.485 259.859 191.852 260.525 186.827C262.745 189.955 278.33 184.703 277.177 180.345C282.579 181.011 286.448 169.247 283.639 167.87Z" fill="#71820C"/>
<path d="M333.892 159.224C338.759 159.436 341.831 165.794 337.057 167.003C339.811 167.516 341.274 173.17 335.37 173.764C338.326 174.328 338.419 179.909 334.186 180.1C336.809 182.099 331.268 188.362 325.341 187.227C330.905 188.121 332.243 194.339 326.339 196.017C330.317 199.533 325.449 204.668 321.789 203.32C326.076 206.264 322.988 210.74 319.607 210.901C321.147 213.355 315.761 217.977 311.079 216.607C313.354 220.548 307.844 224.701 302.103 223.595C302.265 226.576 289.566 229.316 287.469 224.562C285.411 226.452 279.979 223.507 276.403 220.116C275.684 220.255 274.925 220.328 274.152 220.306C274.84 223.229 262.799 227.954 259.89 223.595C257.081 227.221 242.858 219.252 243.98 215.626C239.468 218.358 231.869 215.413 232.156 212.666C230.562 215.867 221.152 215.692 217.43 212.615C213.321 214.161 208.662 214.769 207.532 213.172C206.867 218.182 199.6 221.823 197.558 219.874C199.554 223.918 189.216 233.579 184.696 229.748C183.83 234.934 176.765 238.428 174.412 237.102C172.826 243.512 162.054 245.958 161.706 242.127C158.579 245.753 153.472 243.387 154.246 238.89C149.456 242.479 141.3 238.311 143.652 232.554C137.276 235.147 134.444 228.488 137.276 224.064C130.892 228.247 123.749 223.727 126.14 218.438C122.163 219.317 119.3 213.377 125.072 207.62C119.841 209.231 118.766 204.279 123.115 200.734C117.675 200.859 119.246 193.431 123.3 191.717C112.683 191.212 120.159 178.583 127.115 180.217C121.234 174.313 130.056 164.402 136.951 167.245C129.352 163.326 141.168 149.906 146.608 154.133C143.946 147.885 152.985 141.768 156.676 147.203C156.25 144.054 157.713 141.549 160.027 140.743C158.672 137.784 159.431 134.07 163.223 132.861C157.047 129.887 160.638 123.551 166.039 122.797C158.564 120.819 157.659 112.732 163.486 111.099C160.212 108.755 163.223 102.873 171.588 103.393C166.929 100.624 170.241 96.6687 175.921 97.577C172.331 93.6875 179.365 90.069 183.358 91.9369C176.974 83.8867 192.009 81.2424 195.135 87.3514C196.172 79.294 209.861 79.3673 211.966 86.2087C210.279 78.1733 228.728 78.1733 228.782 84.8463C232.148 78.9058 242.896 81.5574 240.861 87.7323C244.522 83.9893 249.985 84.8756 250.851 90.047C251.664 90.6403 252.299 91.4094 252.755 92.2884C252.848 92.2372 252.941 92.1859 253.049 92.1346C253.127 85.1833 269.919 85.4762 269.957 91.8343C273.324 85.8938 284.072 88.5454 282.037 94.7203C286.533 90.1349 293.745 92.4935 291.826 101.218C296.283 94.9694 305.979 100.258 303.464 105.539C307.682 100.478 313.137 106.872 311.118 110.088C315.962 109.531 320.125 115.303 315.629 117.252C318.438 117.325 320.883 122.68 315.165 124.203C318.175 124.276 319.266 129.77 315.126 130.627C317.293 131.77 315.482 135.916 311.961 137.93C315.9 137.681 319.026 141.19 316.442 147.416C321.951 141.973 330.556 148.742 327.152 153.525C332.205 149.203 336.453 156.382 333.899 159.231L333.892 159.224Z" fill="#71820C"/>
</svg>
